<svg xmlns="http://www.w3.org/2000/svg" width="176.319" height="29.063" viewBox="0 0 4397 725" shape-rendering="geometricPrecision" text-rendering="geometricPrecision" image-rendering="optimizeQuality" fill-rule="evenodd" clip-rule="evenodd"><defs><style>.fil0{fill:#325090;fill-rule:nonzero}</style></defs><path class="fil0" d="M353 14l104 696H272l-10-125h-65l-10 125H0L92 14h261zm-96 448c-8-79-17-177-27-293-18 133-29 231-34 293h61zM669 14v557h109v139H488V14h181zm585 0l-104 314 114 382h-187l-73-298v298H822V268h182v16l81-270h169zM822 175V14h182v161H822zm802-161l104 696h-185l-10-125h-65l-10 125h-187l91-696h262zm-96 448c-9-79-18-177-27-293-18 133-29 231-34 293h61zm788-448v696h-158l-1-470-62 470h-111l-67-459v459h-158V14h233c7 42 14 92 22 148l26 177 41-325h235zm73 0h302v139h-121v133h113v132h-113v153h133v139h-314V14zm366 0h135c87 0 146 4 177 12s54 21 70 40c16 18 26 38 30 61 4 22 6 67 6 133v243c0 63-3 104-9 125s-16 38-30 50c-15 12-33 20-54 25-22 4-54 7-98 7h-227V14zm181 119v458c25 0 41-5 47-16 6-10 9-39 9-85V219c0-31-1-51-3-60s-6-16-14-20c-7-4-20-6-39-6zm486-119v696h-181V14h181zm494 303h-181V197c0-35-2-57-6-66s-12-13-25-13c-15 0-24 5-28 16-4 10-6 33-6 68v323c0 34 2 56 6 66 4 11 13 16 27 16 13 0 22-5 26-16 4-10 6-34 6-73v-87h181v27c0 72-5 123-15 153-10 31-33 57-68 80-34 22-77 34-128 34-53 0-97-10-131-29-35-19-57-46-69-80-11-34-16-85-16-153V260c0-50 1-88 5-113 3-25 13-49 31-72 17-23 40-42 70-55 31-13 65-20 105-20 53 0 97 10 132 31 34 21 57 46 68 77s16 78 16 143v66zm377-303l104 696h-185l-10-125h-65l-10 125h-187l91-696h262zm-96 448c-9-79-18-177-27-293-18 133-30 231-34 293h61z" id="Capa_x0020_1"/></svg>