<svg xmlns="http://www.w3.org/2000/svg" width="85.936" height="14.953" viewBox="0 0 3370 586" shape-rendering="geometricPrecision" text-rendering="geometricPrecision" image-rendering="optimizeQuality" fill-rule="evenodd" clip-rule="evenodd"><defs><style>.fil0{fill:#fff}</style></defs><g id="Capa_x0020_1"><g id="_1042826176"><path class="fil0" d="M2496 533c-30 0-52-3-77-15-5-2-8-3-13-6-32-22-39-28-61-60-13-20-22-57-22-81 0-34 3-46 15-75 2-6 3-9 6-13 14-20 27-38 48-52 50-35 107-38 163-15 5 2 8 4 13 7 29 15 55 45 70 74 18 37 20 99 0 137-13 27-19 37-42 59-3 3-7 6-11 9-7 6-16 11-25 16-15 7-41 15-64 15zm154-309l-21-22c-33-33-89-53-136-53-50 0-72 6-110 23-3 2-6 3-9 5-26 15-40 29-59 50-16 16-22 31-32 50-4 9-11 28-13 40-7 37-8 87 6 121l12 29 16 26c4 5 7 10 12 15l44 40c11 7 24 15 37 20 47 19 100 25 151 11 17-5 26-10 41-18 8-4 19-13 26-19 14-13 20-20 32-35l3-5v74h57V15c0-2 0-3-3-3-58 0-54-4-54 10 1 64 0 137 0 202zM272 79c3 2 6 11 8 15l16 40c1 3 2 4 4 8l9 23c2 4 3 5 4 9 17 41 37 87 54 128 3 7 12 27 13 33H164c1-5 16-40 20-48l88-208zM0 576h59l36-82c2-4 4-8 5-12 3-8 7-15 10-23 2-4 3-8 5-12l16-36c3-7 8-17 10-24h262l61 142c3 8 7 15 10 23 4 9 7 17 11 24h61c0-4-12-28-14-35-5-12-10-24-15-35-5-12-11-24-16-36-2-7-5-11-7-17-9-22-22-50-31-71l-23-54c-16-40-36-82-52-123-2-3-3-5-4-8L311 28c-2-6-6-16-9-16h-59c-4 0-6 9-9 15l-11 26c-1 4-3 6-4 9L98 345c-3 6-5 12-8 17L14 540c-2 6-5 12-7 18-2 4-7 13-7 18zM1329 533c-49 0-89-14-123-47-19-19-29-36-39-61-11-30-12-69-4-100 4-17 9-29 17-43 22-36 59-68 102-76 28-6 51-6 79 0 5 1 11 3 15 5 18 7 11 3 28 12 4 3 7 5 12 8l22 19 18 22c7 11 8 14 14 26 18 37 18 97 1 134-3 5-4 9-6 14-7 14-18 28-28 39l-1 1c-29 29-63 47-107 47zm-230-165c0 59 17 99 51 141 2 3 4 4 6 7 4 4 3 4 7 7 8 6 13 14 29 25 3 2 5 3 8 5 41 25 77 33 127 33 45 0 92-16 120-43 3-3 5-4 8-7l29-32v72h54c2 0 3-1 3-3V162c0-3-1-3-3-3h-54v72c-3-2-4-5-7-8-44-53-92-74-164-74-31 0-68 9-89 19-17 9-18 9-34 20-11 8-19 15-29 25-5 5-8 8-13 14-2 2-3 4-6 7-11 15-16 25-25 43-10 23-18 58-18 91zM2998 202c27 0 46 3 67 12 10 3 17 7 25 12 23 14 39 32 53 56 5 8 19 41 19 53h-314c-7 0 1-18 4-25 7-21 26-54 42-67 8-6 8-8 20-16 15-10 34-19 51-22 11-2 21-3 33-3zm-212 164c0 26 7 67 18 90 19 38 39 64 74 90 5 4 10 7 16 11 49 32 132 38 188 15 42-16 84-51 106-89 2-3 2-4 4-7l12-21c2-6 3-12 6-16h-60c-10 19-8 19-22 36-13 17-29 29-47 40l-21 9c-46 17-103 10-144-17-23-15-41-33-55-57-9-17-17-40-17-63h373c6 0 2-9 2-23 1-21-6-55-12-74-5-14-11-26-18-38-5-10-23-32-31-40-44-43-95-63-161-63-33 0-65 9-87 20-10 5-5 1-17 9-18 10-31 20-46 35l-6 6c-8 9-17 21-23 31-2 3-3 5-5 8s-3 5-4 8l-5 10c-11 23-18 57-18 90zM753 15v558c0 2 1 3 4 3h54v-85c0-2 3-5 7-10l41-50c6-7 12-14 17-21 2 1 9 9 11 12l53 64c14 19 37 44 53 64 26 33 19 26 45 26h47c-1-3-2-4-4-6l-60-72c-4-4-7-8-11-12-11-13-31-39-43-52l-21-26c-4-5-8-8-11-13l-22-26c1-3 20-28 25-33 2-2 3-4 5-7l81-104c3-5 6-8 10-13l30-39c3-4 9-10 10-14-21 0-43-1-64 0-8 0-8 3-17 15-5 6-9 12-14 18l-90 117c-3 4-5 6-8 10l-70 91V12h-54c-3 0-4 1-4 3zM1619 366c0 23 5 50 12 71 6 20 16 40 28 55 19 26 30 36 56 55 6 4 11 7 17 11 59 31 126 37 189 16 6-2 9-3 15-6l28-14c4-3 8-5 12-8 23-17 25-18 43-41 7-9 30-43 32-52h-65c-4 7-19 24-25 29-19 20-38 35-66 43-53 17-116 6-158-30l-11-9c-4-4-6-6-9-11-4-4-7-7-10-11-9-14-8-12-14-26-33-71-10-162 53-207 7-5 16-11 25-15 49-22 120-19 162 11 27 20 25 20 43 43 18 21-8 16 72 16 5 0 1-7-2-12-9-18-20-37-34-51l-10-12c-32-30-70-50-114-58-45-9-99-4-140 15-31 14-54 33-77 58-2 3-3 4-6 7s-4 5-6 8c-15 21-29 50-34 75-3 15-6 33-6 50zM602 576h54c3 0 4-1 4-3V15c0-2-1-3-4-3h-54v564zM2128 576h57V159h-57zM3235 75c0-22 16-46 35-54 23-9 48-7 65 11 17 17 19 28 19 49 0 27-29 53-53 53-19 0-36-2-50-18-8-9-16-24-16-41zm-16 0c0 43 35 75 75 76 10 0 23-3 31-7 13-5 18-11 26-20 10-10 13-16 17-31 4-16 2-34-4-48-7-16-21-31-37-38-29-14-67-7-87 16-13 14-21 31-21 52zM2128 15v94h57V12h-54c-2 0-3 1-3 3z"/><path class="fil0" d="M3283 69h-4V48c10 0 30-1 30 10 0 12-16 11-26 11zm-22 46h18V83c12 0 15 2 21 12 2 4 9 15 10 20h21c-1-5-8-14-11-19-8-14-8-10-12-17 5 0 9-2 12-5 11-10 9-39-18-39h-41v80z"/></g></g></svg>