<svg xmlns="http://www.w3.org/2000/svg" width="86.864" height="17.327" viewBox="0 0 1599 319" shape-rendering="geometricPrecision" text-rendering="geometricPrecision" image-rendering="optimizeQuality" fill-rule="evenodd" clip-rule="evenodd"><defs><style>.fil0{fill:#fff}</style></defs><g id="Capa_x0020_1"><g id="_983645632"><path class="fil0" d="M1060 93V73h-23c-1 0-2 0-2 1v180c0 1 1 1 2 1h23v-98c0-13 1-26 6-37 10-26 35-33 60-26 9 2 18 9 23 17 3 5 5 9 6 14 3 7 3 14 3 24v101c0 7-3 5 25 5V155c0-15 1-33 10-45 3-3 4-5 7-7 1-2 6-5 8-6 11-6 16-6 29-6 10 0 21 4 28 10 14 12 16 30 16 48v106h25V141c0-5-1-10-1-15-1-3-1-5-2-8-3-12-9-22-17-30l-5-5c-10-9-28-15-42-15-11 0-18 0-30 4-8 2-15 7-21 12-3 2-9 9-12 12-1 2-4 5-4 7h-1c-1-3-7-11-10-14-3-4-8-8-12-11-17-9-34-12-54-8-4 1-10 3-14 5-2 1-4 3-6 4s-3 3-5 4c-5 4-5 6-8 9l-2 1zM119 38h1c0 2 7 17 8 21 2 3 2 4 3 7 1 2 2 4 3 7l29 69c1 3 3 5 3 7H72l32-76c2-5 15-33 15-35zM0 255h26l36-83h115l35 83h27c0-2-1-2-1-4-4-7-9-20-12-27L137 17c-1-2-2-6-4-8h-28L86 55c-2 3-2 5-4 8-1 2-2 5-3 7l-7 15c-4 11-9 22-13 31l-6 16c-10 22-21 47-30 69-1 2-2 5-3 7-5 13-12 27-17 39-1 2-3 6-3 8zM1435 91c14 0 26 4 38 11 17 9 28 29 32 47h-138c0-7 7-22 11-27 6-8 11-14 20-20 11-7 24-11 37-11zm-94 69c0 18 2 29 8 44 9 20 28 38 48 47 21 10 51 11 73 2 16-6 28-15 38-28 5-5 18-24 18-30h-25c-1 0-3 4-5 8-1 3-3 5-5 7-5 7-14 14-21 18l-10 4c-20 7-45 5-63-8l-10-7c-10-10-15-17-19-30-1-4-2-10-2-15h155c11 0 9 2 9-6 0-18-4-39-13-53l-5-7c-10-12-21-22-36-29-6-3-12-5-19-6-25-6-55-1-75 13-14 10-26 22-33 38-4 11-8 23-8 38zM582 236c-21 0-38-5-52-19-1-1-2-1-3-2l-2-2c-5-6-4-5-9-13l-3-6c-12-29-7-60 15-82l6-6c17-13 38-17 60-13 6 1 14 4 19 7 2 1 4 2 6 4 19 14 30 33 30 58 0 11-2 23-5 30-7 15-11 20-23 31-2 1-8 5-11 6l-6 3c-2 1-4 1-7 2-5 1-10 2-15 2zm-101-72c0 10 2 22 5 31 0 2 1 3 1 4 2 6 8 16 11 20 4 6 6 8 11 13 4 4 8 8 13 11 24 16 54 20 82 13 4-1 6-1 10-3 1-1 2-1 4-2l4-2c8-5 12-8 18-15 2-2 8-9 9-10v31h25V73h-25v31l-16-17c-3-2-9-7-12-8-26-14-58-14-84-3-13 6-18 11-28 20-3 2-12 13-14 16l-6 12c-5 11-8 28-8 40zM330 255c28 0 25 2 25-5v-31c0-3 1-3 3-4l17-22c1-2 8-9 8-10 2 0 12 14 14 16l24 28c5 7 13 15 18 22 7 8 5 6 15 6h21c-1-2-3-4-4-6l-5-5c-2-2-3-4-5-6l-47-56c-1-2-3-4-5-6-1-2-9-10-9-12 0-1 8-10 9-11l22-29c1-2 3-3 4-5 2-2 3-4 5-6 0-1 1-2 2-3l19-25c2-3 9-10 9-12h-30l-42 54c-2 3-4 5-5 7l-6 7c-3 5-7 9-10 14l-6 7c-2 2-14 19-16 20V9h-25v246zM910 249c0 1-10 23-11 26l-15 35c-1 3-3 6-4 9h27l10-23c1-3 2-5 3-7l21-50c1-2 1-3 2-4 1-3 2-5 3-8 4-9 9-23 13-31l10-23c2-6 14-30 17-39l23-53c0-2 1-3 1-4 1-2 2-2 2-4h-27l-5 13c-1 2-1 3-2 5-2 4-6 13-8 18 0 2-1 2-2 4l-44 104c0-1 0-1-1-2L870 82c0-2-1-3-2-5 0-2-1-3-2-4h-27c1 2 4 8 5 11l50 126c1 2 2 3 2 5 2 4 3 8 5 11l9 23zM701 74c0 24-1 22 4 22 30-1 63 0 93 0-1 1-5 6-6 8l-16 22c-5 7-13 18-19 26l-57 77c-1 1-2 3-2 5v20c0 1 0 1 1 1h134v-22H728l6-9c1-2 2-3 3-4l18-26c2-2 2-3 3-5l50-69c3-3 19-26 19-27V74c0-1 0-1-2-1H703c-2 0-2 0-2 1zM264 255h25V9h-25zM1566 60c-8 0-14-3-18-8-8-7-9-11-9-21 0-4 2-7 3-10 6-12 22-18 35-12 4 2 7 5 10 9 10 13 4 32-10 39-3 2-7 3-11 3zm-34-28c0 11 3 19 9 25 8 8 15 10 26 10 12 0 23-8 29-19 5-11 4-24-3-34-7-9-15-14-29-14-8 0-17 4-22 10-5 4-10 13-10 22z"/><path class="fil0" d="M1566 31h-8v-9h6c4 0 8 0 8 4 0 3-3 5-6 5zm-15 20h7V37c5 0 7 0 10 6 2 3 3 5 5 8h9l-7-12c-2-2-3-2-4-3 3-1 8-4 8-9v-3c0-5-5-8-10-8h-18v35z"/></g></g></svg>