<svg xmlns="http://www.w3.org/2000/svg" width="83.948" height="14.191" viewBox="0 0 2516 425" shape-rendering="geometricPrecision" text-rendering="geometricPrecision" image-rendering="optimizeQuality" fill-rule="evenodd" clip-rule="evenodd"><defs><style>.fil0{fill:#000}</style></defs><g id="Capa_x0020_1"><g id="_1190772896"><path class="fil0" d="M1858 380h-50c-2 0-3 0-3-3V45c43 0 95-1 135 7 19 5 34 9 50 18 10 5 20 13 28 20 7 6 15 16 20 23 18 23 29 59 29 87 0 38-1 62-18 94-13 26-31 46-55 60-37 22-93 26-136 26zm-94 38h125c18 0 35-2 50-5 38-6 66-17 96-39 14-11 30-26 40-41 15-23 28-48 32-77 2-14 5-35 3-49-3-18 0-20-6-48-3-13-8-30-14-41-6-12-12-22-21-33-38-46-81-65-142-74-40-5-120-3-163-3v410zM1445 380h-53V45c62 0 132-3 186 25 11 6 18 12 26 19 3 3 4 3 7 6 26 27 44 66 44 107 0 36-3 62-17 90-15 30-40 56-71 69-36 16-82 19-122 19zm-94 38h124c44 0 102-11 138-37 8-6 15-11 23-18 18-16 35-39 45-63 18-40 20-95 10-140-2-14-8-30-13-41-12-23-27-45-48-61-36-28-67-41-115-46-54-7-108-4-164-4v410zM199 56c1 6 74 172 77 186H119l60-140c3-8 6-15 10-23 2-4 7-21 10-23zM0 418h43c7-13 30-68 38-86l18-43c2-3 3-6 4-9h191c1 6 17 42 21 51l22 52c3 6 6 11 8 17 1 4 6 14 7 18h46c-1-4-4-10-5-13-8-17-25-57-33-77-21-46-40-94-61-141L222 8h-47L82 225c-14 35-34 78-49 115-4 9-8 17-11 26-2 4-4 7-6 12-2 4-3 9-5 13-2 5-11 22-11 27zM843 269c0-37 9-64 35-89 47-48 123-45 168 0 5 5 9 10 13 16l8 13c17 32 16 74 3 107-4 8-11 21-17 28-2 2-4 5-7 8-19 19-41 31-69 34-14 1-26 1-40-2-53-11-94-59-94-115zm237 97v52h41V114h-41v52c-3-2-7-8-10-11-9-9-9-11-21-21-13-9-28-16-43-21-29-9-70-8-98 2-9 3-14 4-22 9l-13 7c-11 7-17 12-27 22-24 23-38 50-43 84-7 42 2 89 25 120 28 39 62 60 110 67h47c26-4 43-11 63-26l20-18c1-2 1-2 2-3l10-11zM2159 111c0 5 1 16 1 21 2 7 3 11 5 18 19 47 62 59 108 73 11 3 22 8 33 12 19 8 40 23 46 44 11 38-2 75-32 96-9 5-21 10-34 11-35 3-73-14-87-47-2-6-3-9-5-16-2-5-4-16-4-20h-44c0 47 28 93 73 112 18 8 32 9 52 10l28-2c9-2 16-4 24-7 14-5 36-20 45-31 10-13 10-10 19-29 7-12 11-36 11-50 0-34-16-69-41-91-29-24-119-39-139-60-1-1-2-2-3-4-4-5-7-10-10-16-2-8-4-20-3-28 0-7 0-9 1-14 1-6 2-8 4-13 3-7 9-16 13-20 34-35 100-25 118 21 4 9 6 20 6 31h44c0-55-35-100-90-110l-26-2c-32 3-58 9-81 32-8 8-12 12-18 23l-5 9c-6 15-9 31-9 47zM549 418h42v-62c0-2 33-41 35-44 3-4 11-11 12-15l13 14 12 15c2 3 4 5 6 8l66 79c2 2 2 1 3 5h52c-1-4-27-34-31-38l-78-94c-2-3-5-6-8-9l-8-10 59-76c6-9 57-72 58-77-15 0-32-1-46 0-6 0-7 3-12 10-2 3-4 5-5 7-2 3-3 4-5 7-16 19-41 52-56 72-2 3-3 4-5 7-4 4-7 8-10 13-4 5-7 9-11 13-3 5-6 9-9 13-4 5-7 9-11 13-2 3-3 5-5 7-2 3-3 4-5 7-3 4-7 10-11 13l1-281c0-4 0-7-3-7h-40v410zM438 418h41V8h-41zM2464 132c-23 0-42-19-42-39 0-15 1-23 14-35 14-14 42-14 57 2 16 16 18 42 0 59-7 7-16 13-29 13zm-54-43c0 30 25 53 48 53 20 0 28-1 43-16 33-32 11-90-39-90-8 0-15 3-20 5-9 4-14 7-19 14-8 10-13 20-13 34z"/><path class="fil0" d="M2460 85h-8V72c15 0 21-2 21 8 0 4-8 5-13 5zm-20 33c16 0 12 4 12-23 9 0 10 1 16 9 3 5 4 9 7 14h14c0-3-11-22-16-24v-2c19-1 16-30-1-30h-32v56z"/></g></g></svg>