<svg xmlns="http://www.w3.org/2000/svg" width="84.557" height="16.381" viewBox="0 0 2396 464" shape-rendering="geometricPrecision" text-rendering="geometricPrecision" image-rendering="optimizeQuality" fill-rule="evenodd" clip-rule="evenodd"><defs><style>.fil0{fill:#000}</style></defs><g id="Capa_x0020_1"><g id="_798450592"><path class="fil0" d="M829 226c0 30-1 47-18 73-6 9-15 18-24 24-4 4-9 7-15 9-24 10-30 10-56 10-10 0-23-3-31-6-10-4-18-9-25-14-52-39-55-119-12-162 32-31 74-39 116-24 36 13 65 53 65 90zm-209-80v-45h-36v363h36V325c2 2 7 8 9 11 4 5 14 14 20 18 63 43 153 22 193-36 12-17 17-28 22-50 9-39 1-79-21-112-5-8-10-13-16-20l-1-2c-45-42-107-51-162-24-12 6-14 8-24 16-9 8-18 19-20 20zM497 214H293c0-15 13-36 21-48 15-20 44-36 69-37 5 0 6-1 11 0l21 2c16 3 36 12 48 23 8 8 14 15 21 26 4 6 12 25 13 34zm-242 13c0 28 1 46 13 70l9 16c14 22 38 43 61 52 44 18 96 16 134-12l9-6 7-7c3-2 5-4 7-7 3-3 4-5 7-8 6-5 14-18 17-25 2-3 11-19 5-19h-33c-4 0-3 4-7 11-8 12-15 21-26 30-14 11-36 20-55 20-21 0-33 0-53-9l-15-9c-2-2-4-3-6-5-3-2-5-4-7-6-9-9-15-15-21-27-4-9-10-26-10-38h243c0-35-5-65-23-92-9-12-23-27-35-36-8-5-14-9-23-13-42-20-98-16-138 11-3 2-6 5-9 7-30 24-51 63-51 102zM1963 230c0 25-3 46-16 65-4 6-7 9-11 14-14 18-43 33-67 33-21 0-27 1-48-6-16-6-34-21-45-34-6-7-10-14-14-24-9-22-10-44-6-67 8-37 40-71 77-79 25-6 47-3 67 5 36 13 63 52 63 93zm-103 147c11 0 25-2 34-4 16-4 28-10 40-19l27-27c1-1 1-2 2-3v37c0 12-5 10 35 10 2 0 3-1 3-3V101c-42 0-38-3-38 9v37l-8-11c-22-26-61-41-97-41-46 0-78 17-101 40-26 26-39 56-40 93 0 5-1 5-1 8 0 4 1 4 1 8 0 19 4 34 11 51 18 41 55 70 100 79 9 2 22 3 32 3zM1203 342c-23 0-35 0-56-10-56-28-74-96-45-150 2-4 3-5 6-8 17-24 44-44 74-45 5 0 8-1 12-1 14 1 30 4 43 10l16 9c3 2 5 3 8 6 11 11 21 19 28 37 4 9 8 21 9 31 0 14 2 19-2 35-4 19-11 38-24 52-14 15-28 25-47 30-6 2-14 4-22 4zm-152-112c0 35 5 61 27 90 5 7 10 12 16 18l19 16c40 26 100 32 144 8 23-13 38-36 41-38v37c0 12-5 10 34 10 2 0 3-1 3-3V101h-37v46l-13-16h-1l-2-2c-6-5-5-5-13-11s-17-11-26-14c-36-15-85-11-120 7-12 7-18 13-28 21l-1 1h-1c-16 14-33 44-38 66-2 9-4 21-4 31zM186 267c0 24-5 38-19 54-9 12-30 21-45 21h-10c-27 0-55-18-65-44-3-7-7-20-7-30H0c0 8 2 18 3 24 2 8 4 14 7 21 30 71 126 82 177 38 25-22 36-47 36-83 0-25-10-48-22-62-15-19-28-24-51-34l-63-22c-11-4-20-8-26-16-21-29-12-76 20-92 32-17 77-4 90 31 3 9 5 17 5 26h38c0-15-3-32-8-43-3-5-6-11-9-16l-12-13-13-11c-5-3-11-6-17-8C103-13 31 9 15 72c-1 6-4 22-3 29 2 11 0 14 5 29 22 67 105 57 147 91 12 9 22 25 22 46zM1494 368c0 2 1 3 3 3 35 0 35 2 35-6v-48c0-5 3-7 7-12 6-7 11-13 17-21 2-2 16-18 17-21l6 6 11 14c2 3 3 5 5 7 3 2 4 4 6 7l11 13c3 3 4 5 6 7 4 5 8 9 11 14 4 4 8 9 12 13l11 14c2 2 4 4 6 7 1 2 3 6 6 6h41c4 0 3-2 1-3l-10-13c-3-3-5-5-7-8l-85-102c-2-3-5-6-7-9 0 0 1-1 1-2l2-2 29-37c2-4 4-6 7-9l19-25c5-6 45-56 46-60-13 0-29-1-41 0-4 0-5 1-7 3-1 2-2 4-4 6-14 17-27 36-40 53l-68 87c-2 3-7 10-9 12V13c0-4 0-6-3-6h-35v361zM2099 134l1-27c0-3 0-6-3-6h-35v267c0 2 1 3 3 3 41 0 34 3 34-13V248c0-21-1-44 3-60 7-26 20-41 43-52 5-3 17-6 25-7 9 0 19-1 28 1 15 4 22 6 34 14 24 17 31 50 31 80v146h38V239c0-21-1-43-5-60-13-54-56-84-111-84-30 0-49 8-70 24-5 4-10 11-16 15zM940 9v92h-58v34h58v233c0 2 0 3 2 3h33c2 0 2-1 2-3V135h58c2 0 3-1 3-3v-28c0-2-1-3-3-3h-58V9c0-2 0-2-2-2h-33c-2 0-2 0-2 2zM1396 371h37V7h-37zM2351 87c-14 0-20-1-31-12-22-22-9-64 30-64 11 0 19 6 25 12 14 14 14 35 1 52-5 5-15 12-25 12zm-51-40c0 14 4 28 15 37 14 12 33 18 52 9 38-19 38-67 4-86-17-10-46-7-58 9-7 8-13 16-13 31z"/><path class="fil0" d="M2346 45h-9V32h11c4 0 9 2 9 7s-6 6-11 6zm-20 29h11V54c7 0 10 0 14 8 2 2 6 10 7 12h13c-5-8-9-16-15-22 19-4 16-29-5-29h-25v51z"/></g></g></svg>