<svg xmlns="http://www.w3.org/2000/svg" width="83.91" height="10.717" viewBox="0 0 2058 263" shape-rendering="geometricPrecision" text-rendering="geometricPrecision" image-rendering="optimizeQuality" fill-rule="evenodd" clip-rule="evenodd"><defs><style>.fil0{fill:#000}</style></defs><g id="Capa_x0020_1"><g id="_1047068800"><path class="fil0" d="M1785 258h26V140h131v118h25V5h-25v111h-131V6c0-1-1-1-2-1h-24v253zM1168 239c-15 0-29-3-40-10-2-1-4-2-6-4l-10-8c-6-6-12-14-15-22-1-2-2-4-3-7 0-2-1-5-1-7-4-15-2-35 4-48 3-5 3-5 5-9 6-11 20-23 32-28 16-7 29-8 46-5 14 3 26 10 36 20 15 15 20 29 22 51 0 3-1 14-2 17l-4 14c-4 10-9 17-16 25l-2 2-5 4c-1 1-1 2-3 2-10 8-23 13-38 13zm-103-79c0 16 0 27 6 41 4 9 7 16 14 24l9 10c17 18 40 27 67 27 2 0 2 1 4 1l13-1c16-1 28-7 41-17 4-3 11-9 14-14l5-5v32h25V70h-25v33c-2-1-1 0-2-2-7-9-16-18-26-24-4-1-5-3-9-4-17-6-20-7-41-7-9 0-23 3-30 5-11 4-25 12-34 20-3 3-8 9-11 12-1 2-2 3-3 4-3 4-5 9-8 15-5 10-9 26-9 38zM699 90c11 0 22 2 30 6 4 2 9 4 12 6 6 5 5 4 10 9 14 14 22 32 22 52 0 11-3 23-6 31-3 6-7 15-12 20l-2 2c-5 6-14 13-21 16-24 12-57 8-78-9-6-5-11-9-15-16-2-2-3-4-4-6-5-10-9-21-9-33v-12c0-2 1-6 1-8 1-5 3-11 5-14 3-8 6-12 11-18l4-5c6-5 14-12 22-15 9-4 19-6 30-6zm-99 72c0 14 1 26 6 38 7 18 17 32 33 44 7 5 16 10 25 13 16 6 18 4 36 6l13-1c11-1 20-4 29-9 4-2 11-7 14-10 3-2 4-2 8-7l9-10v32h25V70h-25v33c-9-9-6-9-20-20-7-5-19-11-27-14-23-6-49-4-71 6-1 1-2 1-3 2-2 1-3 1-4 2-5 3-10 6-14 10-1 1-2 1-3 2-1 2-2 2-3 4-9 8-15 16-20 28-5 10-8 26-8 39zM8 66c0 11 1 20 6 30 3 7 7 13 12 17 7 7 7 8 18 12 15 7 28 10 43 16 4 1 7 2 11 4 10 4 18 9 25 18 11 17 9 46-8 62-15 15-37 17-56 9-2 0-3-1-4-2-2-1-3-1-5-2l-3-3c-7-5-11-10-14-19-2-3-3-6-4-10 0-3-1-7-2-11H0c0 5 1 11 2 15 5 25 22 48 47 56 28 9 60 5 80-12l2-2c13-12 20-23 24-41 2-11 1-21-1-31-1-6-2-8-4-13-9-19-22-29-40-37-11-4-14-5-25-9-12-3-35-10-42-19-12-15-12-36-1-52 1-2 3-4 5-6 3-3 8-7 12-9 24-8 51 0 60 23 2 5 4 12 4 19h27c0-22-11-46-29-57-11-7-20-9-32-11-11-2-28 0-38 4-2 1-3 1-5 2l-11 7c-2 1-4 2-5 4l-8 9C13 38 8 51 8 66zM1604 66c0 10 1 21 5 30 3 5 1 3 5 9 9 13 20 19 35 24 3 2 7 3 11 4 18 6 46 13 58 30 9 13 9 35 3 48-3 6-6 10-10 14s-5 5-10 8c-1 1-2 1-4 2-14 6-29 5-43-1-5-2-11-6-16-10-4-4-7-10-10-16-4-9-3-13-5-21h-28c0 5 2 13 3 17 0 3 1 5 2 7 4 12 9 21 18 30 13 13 27 19 45 21 3 0 7 0 10 1 9 1 23-3 32-6 6-2 13-6 18-10 13-10 23-24 27-40 4-20 1-37-8-54-1-2-2-3-3-5-6-9-10-13-19-19-7-4-9-4-15-7-14-6-37-12-51-18-2-1-3-1-5-2-12-5-19-20-19-34 0-9 4-22 9-28 1-2 2-2 3-3 13-17 47-18 63-1 9 8 13 21 13 33h27c0-15-4-29-12-41-7-10-17-18-29-23-7-3-17-4-25-5h-7c-5 1-4 0-12 1-9 2-18 5-25 10l-5 3c-16 12-26 31-26 52zM910 258h25v-37c0-3 8-11 11-14l18-23 24 27c1 2 2 3 3 5l23 28c2 1 3 3 5 4l5 7c1 2 2 1 2 3h32c-3-6-18-22-24-29l-14-17c-7-9-17-20-24-29-2-2-4-4-5-6-2-2-3-4-5-6s-4-4-5-6c1-2 1-1 2-3l5-6c1-1 1-1 2-3 1-1 1-2 2-3l5-6c1-1 1-1 2-3l48-61c1-1 1-2 2-3s2-2 2-3c1-1 2-2 2-4h-31l-19 25-2 4-3 3-61 80c-1 1-1 1-2 1V5h-25v253zM185 72v95c0 11 0 22 2 31 0 4 1 10 3 14 1 4 2 9 4 12l7 10c1 2 2 3 4 5 2 3 6 6 8 8 2 1 3 2 5 4 4 2 7 4 11 5 17 7 42 9 58 4 17-5 27-13 37-29l1 27h26V70h-26v100c0 15-3 27-8 39-7 18-28 30-48 30-11 0-21-1-29-5-14-7-21-16-25-30-4-11-5-23-5-35V70h-24c-1 0-1 1-1 2zM1332 94V70h-26v188h26V150c0-13 2-26 9-37 1-1 2-2 3-4l4-4c1-1 2-2 4-3 15-13 35-15 54-10 2 0 3 1 5 2s4 1 6 2c3 1 7 4 9 6 1 1 2 2 4 3 1 2 2 3 4 5 9 11 12 32 12 48v100h26v-97c0-15-1-34-7-47-2-5-4-10-7-15-10-15-26-26-44-30-15-4-30-4-44 0-13 4-23 10-33 19l-5 6zM519 70h-29v23c0 1 0 1 2 1h27v164h26V94h45c2 0 2 0 2-1V72c0-1 0-2-2-2h-45c0-12 2-26 12-33 7-6 16-7 25-8 12-2 10 5 10-23 0-2-2-1-7-1s-10 1-15 1c-13 3-24 7-34 16-6 6-9 10-12 20-4 10-5 17-5 28zM841 258h25V5h-25zM419 96V70h-26v188h26V148c0-16 4-30 14-41 3-2 5-4 8-6 2-2 6-4 9-5 7-2 10-3 17-4s5 2 5-24c0-4-15 0-18 0-6 2-10 3-15 6-6 4-10 7-14 12-3 4-5 8-6 10zM2025 11c7 0 14 4 18 7 2 3 4 4 5 7 4 6 4 17 1 24-6 15-29 22-43 7-16-17-3-45 19-45zm-34 27c0 26 28 40 47 31l6-3c7-6 11-11 13-20 3-12 0-24-8-31-2-3-6-6-10-8-11-4-23-4-34 4-1 0-3 2-4 3-3 3-5 6-7 10-1 4-3 8-3 14z"/><path class="fil0" d="M2022 35h-4v-9c4 0 13-1 13 4 0 2-1 4-3 4-1 1-4 1-6 1zm-12-14v33c0 3 6 2 8 1V41c8 0 10 7 14 15h9c0-3-3-7-4-9-2-2-4-6-6-6v-1c9-1 10-13 5-18-5-3-17-2-24-2-2 0-2 0-2 1z"/></g></g></svg>