<?xml version="1.0" encoding="utf-8"?>
<!-- Generator: Adobe Illustrator 16.0.0, SVG Export Plug-In . SVG Version: 6.00 Build 0)  -->
<!DOCTYPE svg PUBLIC "-//W3C//DTD SVG 1.1//EN" "http://www.w3.org/Graphics/SVG/1.1/DTD/svg11.dtd">
<svg version="1.1" id="Capa_1" xmlns="http://www.w3.org/2000/svg" xmlns:xlink="http://www.w3.org/1999/xlink" x="0px" y="0px"
	 width="500px" height="168.5px" viewBox="0 0 500 168.5" enable-background="new 0 0 500 168.5" xml:space="preserve">
<g>
	<g>
		<g>
			<g>
				<path fill="#010300" d="M-498.803,40.325c0,0-55.324-6.174-55.324,39.896c0,46.063,34.429,43.685,39.653,43.685
					c5.228,0,28.854-2.83,31.443-0.139c4.836,4.423,4.836,4.423,4.836,4.423s5.204,6.499,19.605,5.692
					c15.143-0.837,15.599-24.222,15.599-37.987C-442.99,82.116-432.783,40.325-498.803,40.325z"/>
			</g>
		</g>
	</g>
	<g>
		<path fill="#010300" d="M-407.442,97.636c5.302,0,9.64-2.1,13.008-6.297l6.917,7.124c-5.489,6.184-11.961,9.274-19.406,9.274
			c-7.454,0-13.588-2.355-18.408-7.059c-4.822-4.706-7.231-10.646-7.231-17.817c0-7.175,2.455-13.159,7.37-17.957
			c4.912-4.798,10.919-7.198,18.023-7.198c7.936,0,14.578,3.022,19.934,9.066l-6.717,7.609c-3.412-4.243-7.655-6.364-12.732-6.364
			c-4.059,0-7.531,1.327-10.414,3.978c-2.884,2.653-4.324,6.23-4.324,10.726c0,4.499,1.361,8.106,4.083,10.832
			C-414.621,96.276-411.32,97.636-407.442,97.636z"/>
		<path fill="#010300" d="M-379.176,65.215c-1.181-1.176-1.768-2.617-1.768-4.328c0-1.705,0.587-3.146,1.768-4.32
			c1.172-1.18,2.613-1.768,4.324-1.768c1.706,0,3.149,0.588,4.323,1.768c1.179,1.174,1.764,2.616,1.764,4.32
			c0,1.711-0.585,3.152-1.764,4.328c-1.174,1.175-2.617,1.765-4.323,1.765C-376.563,66.98-378.004,66.391-379.176,65.215z
			 M-369.663,107.187h-10.379V69.958h10.379V107.187z"/>
		<path fill="#010300" d="M-349.389,58.814v11.144h8.995v8.095h-8.995v16.053c0,1.431,0.37,2.55,1.105,3.355
			c0.738,0.812,1.616,1.211,2.632,1.211c1.937,0,3.573-0.875,4.914-2.63l3.876,7.266c-3.232,2.954-6.631,4.43-10.208,4.43
			s-6.601-1.176-9.067-3.527c-2.468-2.354-3.702-5.561-3.702-9.62V58.814H-349.389z"/>
		<path fill="#010300" d="M-316.45,104.416c-10.009,0-15.018-5.349-15.018-16.052V69.958h10.45v15.084
			c0,3.692,0.495,6.297,1.487,7.82c0.99,1.521,2.701,2.281,5.121,2.281c2.421,0,4.256-0.728,5.503-2.179
			c1.246-1.453,1.869-3.516,1.869-6.192V69.884h10.445v31.28c0,6.506-1.715,11.576-5.154,15.226
			c-3.434,3.642-7.854,5.464-13.252,5.464c-4.195,0-7.875-1.062-11.04-3.183c-3.152-2.122-5.498-5.167-7.021-9.136l8.929-3.873
			c1.8,4.89,4.796,7.333,8.996,7.333c2.629,0,4.729-0.98,6.296-2.939c1.572-1.958,2.353-4.44,2.353-7.438
			c0-0.416-0.022-0.832-0.069-1.244C-309.459,103.4-312.76,104.416-316.45,104.416z"/>
		<path fill="#010300" d="M-264.759,68.156v39.031h-10.797V68.156h-13.702v-9.342h38.199v9.342H-264.759z"/>
		<path fill="#010300" d="M-217.01,107.187h-9.761v-4.5c-2.676,3.368-5.986,5.051-9.93,5.051c-3.945,0-7.256-1.142-9.933-3.423
			c-2.672-2.285-4.006-5.332-4.006-9.135c0-3.809,1.379-6.655,4.145-8.547c2.773-1.891,6.555-2.837,11.352-2.837h7.75v-0.209
			c0-3.968-2.1-5.95-6.299-5.95c-1.8,0-3.7,0.36-5.705,1.073c-2.01,0.717-3.704,1.603-5.087,2.662l-4.64-6.711
			c4.891-3.55,10.473-5.327,16.745-5.327c4.525,0,8.214,1.131,11.074,3.39c2.86,2.261,4.294,5.834,4.294,10.724V107.187z
			 M-227.463,92.997v-1.795h-6.501c-4.156,0-6.229,1.29-6.229,3.873c0,1.338,0.494,2.362,1.488,3.079
			c0.991,0.718,2.409,1.074,4.256,1.074c1.843,0,3.47-0.565,4.878-1.697C-228.163,96.401-227.463,94.89-227.463,92.997z"/>
		<path fill="#010300" d="M-198.469,69.958l6.367,9.961l6.573-9.961h12.179l-12.803,18.198l13.287,19.031h-12.389l-7.265-10.243
			l-7.057,10.243h-11.973l13.012-18.967l-12.319-18.262H-198.469z"/>
		<path fill="#010300" d="M-166.121,74.977c-1.157-1.166-1.733-2.594-1.733-4.287c0-1.696,0.576-3.129,1.733-4.289
			c1.158-1.169,2.58-1.756,4.259-1.756c1.681,0,3.092,0.586,4.251,1.756c1.157,1.16,1.738,2.593,1.738,4.289
			c0,1.692-0.581,3.121-1.738,4.287c-1.159,1.168-2.57,1.748-4.251,1.748C-163.541,76.725-164.963,76.145-166.121,74.977z
			 M-156.76,107.187h-10.212V79.679h10.212V107.187z"/>
	</g>
	<g>
		<path fill="#010300" d="M-279.909,126.516l-1.028-2.398h-4.652l-1.029,2.398h-2.639l4.795-11.094h2.398l4.787,11.094H-279.909z
			 M-283.257,118.728l-1.401,3.219h2.781L-283.257,118.728z"/>
		<path fill="#010300" d="M-271.268,117.842c0.999,0,1.883,0.413,2.664,1.243c0.771,0.825,1.162,1.876,1.162,3.132
			c0,1.257-0.391,2.308-1.162,3.153c-0.781,0.849-1.694,1.272-2.733,1.272c-1.041,0-1.876-0.419-2.515-1.256v4.207h-2.381v-11.61
			h2.381v0.948C-273.122,118.202-272.256,117.842-271.268,117.842z M-273.882,122.255c0,0.688,0.193,1.256,0.578,1.698
			c0.388,0.439,0.855,0.659,1.404,0.659c0.55,0,1.03-0.22,1.444-0.659c0.414-0.442,0.615-1.005,0.615-1.686
			c0-0.69-0.196-1.265-0.6-1.734c-0.396-0.465-0.883-0.693-1.445-0.693c-0.557,0-1.031,0.229-1.419,0.688
			C-273.688,120.984-273.882,121.564-273.882,122.255z"/>
		<path fill="#010300" d="M-263.285,126.516h-2.378v-11.772h2.378V126.516z"/>
		<path fill="#010300" d="M-260.832,116.892c-0.275-0.267-0.408-0.596-0.408-0.986c0-0.397,0.133-0.731,0.408-0.999
			c0.271-0.265,0.602-0.406,0.989-0.406c0.396,0,0.723,0.142,0.994,0.406c0.268,0.268,0.404,0.602,0.404,0.999
			c0,0.391-0.137,0.72-0.404,0.986c-0.271,0.271-0.599,0.405-0.994,0.405C-260.23,117.297-260.562,117.163-260.832,116.892z
			 M-258.65,126.516h-2.38v-8.532h2.38V126.516z"/>
		<path fill="#010300" d="M-252.301,124.528c0.786,0,1.508-0.395,2.139-1.187l1.413,1.583c-1.103,1.147-2.299,1.718-3.572,1.718
			c-1.278,0-2.362-0.407-3.249-1.215c-0.881-0.813-1.319-1.866-1.319-3.173c0-1.308,0.442-2.368,1.34-3.188
			c0.896-0.821,1.956-1.226,3.182-1.226c0.609,0,1.23,0.119,1.862,0.374c0.632,0.258,1.18,0.628,1.658,1.132l-1.233,1.618
			c-0.279-0.332-0.613-0.588-1.009-0.767c-0.397-0.178-0.8-0.269-1.184-0.269c-0.625,0-1.164,0.201-1.612,0.612
			c-0.448,0.404-0.674,0.974-0.674,1.696c0,0.726,0.226,1.285,0.674,1.689C-253.438,124.332-252.905,124.528-252.301,124.528z"/>
		<path fill="#010300" d="M-239.921,126.516h-2.231v-1.033c-0.611,0.772-1.376,1.16-2.278,1.16c-0.901,0-1.664-0.259-2.273-0.787
			c-0.613-0.524-0.923-1.22-0.923-2.094s0.316-1.528,0.955-1.952c0.634-0.443,1.502-0.654,2.598-0.654h1.777v-0.053
			c0-0.91-0.483-1.357-1.44-1.357c-0.412,0-0.854,0.079-1.31,0.24c-0.458,0.162-0.853,0.365-1.162,0.612l-1.07-1.54
			c1.122-0.815,2.4-1.216,3.844-1.216c1.034,0,1.883,0.261,2.531,0.771c0.66,0.522,0.983,1.335,0.983,2.458V126.516z
			 M-242.309,123.267v-0.418h-1.496c-0.948,0-1.425,0.302-1.425,0.892c0,0.307,0.116,0.538,0.337,0.703
			c0.229,0.162,0.556,0.251,0.977,0.251c0.425,0,0.795-0.135,1.122-0.396C-242.475,124.04-242.309,123.694-242.309,123.267z"/>
		<path fill="#010300" d="M-233.649,124.528c0.795,0,1.512-0.395,2.138-1.187l1.416,1.583c-1.104,1.147-2.288,1.718-3.571,1.718
			c-1.277,0-2.356-0.407-3.242-1.215c-0.883-0.813-1.324-1.866-1.324-3.173c0-1.308,0.446-2.368,1.339-3.188
			c0.898-0.821,1.956-1.226,3.177-1.226c0.616,0,1.24,0.119,1.867,0.374c0.632,0.258,1.185,0.628,1.659,1.132l-1.236,1.618
			c-0.276-0.332-0.614-0.588-1.013-0.767c-0.396-0.178-0.788-0.269-1.182-0.269c-0.622,0-1.155,0.201-1.604,0.612
			c-0.449,0.404-0.679,0.974-0.679,1.696c0,0.726,0.229,1.285,0.679,1.689C-234.777,124.332-234.252,124.528-233.649,124.528z"/>
		<path fill="#010300" d="M-228.311,116.892c-0.271-0.267-0.404-0.596-0.404-0.986c0-0.397,0.133-0.731,0.404-0.999
			c0.271-0.265,0.6-0.406,0.987-0.406c0.395,0,0.723,0.142,0.995,0.406c0.268,0.268,0.403,0.602,0.403,0.999
			c0,0.391-0.136,0.72-0.403,0.986c-0.272,0.271-0.601,0.405-0.995,0.405C-227.711,117.297-228.039,117.163-228.311,116.892z
			 M-226.129,126.516h-2.384v-8.532h2.384V126.516z"/>
		<path fill="#010300" d="M-215.343,122.244c0,1.241-0.421,2.28-1.284,3.126c-0.857,0.849-1.936,1.272-3.229,1.272
			c-1.298,0-2.372-0.424-3.229-1.272c-0.855-0.846-1.282-1.885-1.282-3.126c0-1.239,0.427-2.278,1.282-3.129
			c0.856-0.852,1.931-1.273,3.229-1.273c1.294,0,2.372,0.422,3.229,1.273C-215.764,119.966-215.343,121.005-215.343,122.244z
			 M-221.973,122.244c0,0.698,0.202,1.267,0.6,1.709c0.391,0.439,0.9,0.659,1.517,0.659c0.622,0,1.128-0.22,1.523-0.659
			c0.4-0.442,0.6-1.011,0.6-1.709c0-0.697-0.199-1.269-0.6-1.711c-0.396-0.444-0.901-0.664-1.523-0.664
			c-0.616,0-1.126,0.22-1.517,0.664C-221.771,120.976-221.973,121.547-221.973,122.244z M-218.958,116.828h-2.271l2.014-2.813
			l2.461,1.031L-218.958,116.828z"/>
		<path fill="#010300" d="M-211.218,121.756v4.76h-2.376v-8.532h2.376v0.948c0.717-0.729,1.525-1.09,2.429-1.09
			c0.897,0,1.652,0.313,2.266,0.945c0.604,0.635,0.91,1.485,0.91,2.541v5.188h-2.38v-4.82c0-1.317-0.484-1.971-1.446-1.971
			c-0.472,0-0.893,0.177-1.243,0.512C-211.036,120.58-211.218,121.089-211.218,121.756z"/>
		<path fill="#010300" d="M-191.435,121.914v4.602h-2.395v-4.664c0-0.677-0.098-1.177-0.307-1.49
			c-0.207-0.32-0.539-0.479-1.004-0.479c-0.46,0-0.867,0.175-1.216,0.516c-0.36,0.341-0.532,0.846-0.532,1.516v4.602h-2.381v-8.532
			h2.381v0.964c0.653-0.74,1.408-1.105,2.25-1.105c0.541,0,1.027,0.156,1.466,0.475c0.441,0.313,0.768,0.699,0.995,1.156
			c0.326-0.519,0.767-0.922,1.324-1.203c0.552-0.286,1.114-0.428,1.676-0.428c1,0,1.812,0.293,2.423,0.89
			c0.611,0.598,0.915,1.461,0.915,2.597v5.188h-2.387v-4.664c0-1.309-0.48-1.969-1.443-1.969c-0.475,0-0.891,0.175-1.24,0.516
			C-191.256,120.739-191.435,121.244-191.435,121.914z"/>
		<path fill="#010300" d="M-175.139,122.244c0,1.241-0.428,2.28-1.283,3.126c-0.862,0.849-1.934,1.272-3.233,1.272
			c-1.29,0-2.373-0.424-3.224-1.272c-0.855-0.846-1.288-1.885-1.288-3.126c0-1.239,0.433-2.278,1.288-3.129
			c0.851-0.852,1.934-1.273,3.224-1.273c1.3,0,2.371,0.422,3.233,1.273C-175.566,119.966-175.139,121.005-175.139,122.244z
			 M-181.772,122.244c0,0.698,0.201,1.267,0.598,1.709c0.393,0.439,0.903,0.659,1.52,0.659c0.623,0,1.132-0.22,1.522-0.659
			c0.397-0.442,0.604-1.011,0.604-1.709c0-0.697-0.206-1.269-0.604-1.711c-0.391-0.444-0.899-0.664-1.522-0.664
			c-0.616,0-1.127,0.22-1.52,0.664C-181.571,120.976-181.772,121.547-181.772,122.244z M-178.759,116.828h-2.27l2.015-2.813
			l2.463,1.031L-178.759,116.828z"/>
		<path fill="#010300" d="M-171.095,126.516l-3.382-8.555h2.482l2.122,5.381l2.128-5.381h2.469l-3.378,8.555H-171.095z"/>
		<path fill="#010300" d="M-163.898,116.892c-0.27-0.267-0.409-0.596-0.409-0.986c0-0.397,0.14-0.731,0.409-0.999
			c0.273-0.265,0.598-0.406,0.988-0.406c0.393,0,0.725,0.142,0.99,0.406c0.276,0.268,0.408,0.602,0.408,0.999
			c0,0.391-0.132,0.72-0.408,0.986c-0.266,0.271-0.598,0.405-0.99,0.405C-163.301,117.297-163.625,117.163-163.898,116.892z
			 M-161.721,126.516h-2.377v-8.532h2.377V126.516z"/>
		<path fill="#010300" d="M-157.085,126.516h-2.382v-11.772h2.382V126.516z"/>
	</g>
	<g>
		<path fill="#FFFFFF" d="M-487.226,101.565c0,3.155,2.556,5.705,5.705,5.705c3.151,0,5.704-2.55,5.704-5.705
			c0-3.148-2.553-5.7-5.704-5.7C-484.67,95.865-487.226,98.417-487.226,101.565z"/>
		<circle fill="#FFFFFF" cx="-521.094" cy="101.565" r="6.056"/>
		<path fill="#FFFFFF" d="M-473.606,82.591h-3.471c-0.374-12.146-2.493-22.968-14.42-24.964c-0.053-4.028-0.677-7.147-4.793-7.147
			c-4.286,0-7.589,3.484-7.634,7.762c-15.438,3.541-27.044,17.292-27.177,33.747c0,0.049,0.031,1.212,0.052,1.455
			c0.842,3.354,4.927,0.35,5.99-0.203c1.186-0.558,2.536-0.878,3.933-0.878c4.519,0,8.282,2.92,9.069,7.206
			c0.277,1.659,1.18,1.788,4.075,1.788h14.169c2.735,0,3.465-2.261,3.439-2.255c1.114-3.731,4.622-6.429,8.682-6.429
			c3.896,0,7.276,2.545,8.459,6.04l0.047,0.005c0,0,0.025,0.03,0.037,0.069c0.036,0.112,0.076,0.224,0.113,0.335
			c0.308,0.911,1.537,2.968,3.793,1.734c2.585-1.619,4.306-4.581,4.306-8.145v-0.564C-464.937,86.995-468.454,82.591-473.606,82.591
			z M-511.301,81.457l-0.035-0.008c0,0,0.115,2.326-2.38,2.326l0.024-0.084h-9.045c-1.772,0-1.074-1.546-1.027-1.654
			c3.181-7.353,6.94-12.015,12.463-15.057V81.457z M-510.954,94.321c-0.101,0-0.186-0.613-0.186-1.367
			c0-0.766,0.085-1.376,0.186-1.376h3.107c-0.103,0-0.188-0.61-0.188-1.366c0-0.758,0.085-1.367,0.188-1.367h3.242
			c0.104,0,0.186,0.609,0.186,1.367c0,0.756-0.081,1.366-0.186,1.366h-3.107c0.104,0,0.184,0.61,0.184,1.376
			c0,0.754-0.079,1.367-0.184,1.367H-510.954z M-497.792,95.375c0,0.751-0.084,1.368-0.184,1.368h-3.242
			c-0.104,0-0.188-0.617-0.188-1.368c0-0.435,0.034-0.803,0.073-1.054h-2.854c0.046,0.251,0.072,0.619,0.072,1.054
			c0,0.751-0.079,1.368-0.182,1.368h-3.245c-0.104,0-0.187-0.617-0.187-1.368c0-0.758,0.082-1.372,0.187-1.372h2.9
			c-0.041-0.246-0.069-0.615-0.069-1.049c0-0.766,0.079-1.376,0.184-1.376h3.24c0.103,0,0.188,0.61,0.188,1.376
			c0,0.434-0.032,0.803-0.073,1.049h3.16c-0.046-0.246-0.073-0.615-0.073-1.049c0-0.766,0.084-1.376,0.184-1.376h3.244
			c0.104,0,0.184,0.61,0.184,1.376c0,0.754-0.079,1.367-0.184,1.367h-3.208C-497.819,94.572-497.792,94.94-497.792,95.375z
			 M-501.405,90.212c0-0.758,0.084-1.367,0.188-1.367h3.242c0.1,0,0.184,0.609,0.184,1.367c0,0.756-0.084,1.366-0.184,1.366h-3.242
			C-501.321,91.578-501.405,90.968-501.405,90.212z M-491.21,96.743h-3.242c-0.104,0-0.184-0.617-0.184-1.368
			c0-0.758,0.079-1.372,0.184-1.372h3.242c0.105,0,0.187,0.614,0.187,1.372C-491.023,96.126-491.104,96.743-491.21,96.743z
			 M-491.21,91.578h-3.242c-0.104,0-0.184-0.61-0.184-1.366c0-0.758,0.079-1.367,0.184-1.367h3.242c0.105,0,0.187,0.609,0.187,1.367
			C-491.023,90.968-491.104,91.578-491.21,91.578z M-481.812,81.522l-0.044-0.184c0,0,0.05,2.352-2.081,2.352h-22.195
			c-1.627,0-1.857-1.894-1.857-2.378v-16.1c2.208-1.247,5.747-2.038,9.11-2.5c13.16-1.797,17.138,5.849,17.138,17.479
			C-481.741,80.628-481.779,81.078-481.812,81.522z"/>
	</g>
</g>
<g>
	<path fill="#FFFFFF" d="M197.558,97.636c5.302,0,9.64-2.1,13.008-6.297l6.917,7.124c-5.489,6.184-11.961,9.274-19.406,9.274
		c-7.454,0-13.588-2.355-18.408-7.059c-4.822-4.706-7.231-10.646-7.231-17.817c0-7.175,2.455-13.159,7.37-17.957
		c4.912-4.798,10.919-7.198,18.023-7.198c7.936,0,14.578,3.022,19.934,9.066l-6.717,7.609c-3.412-4.243-7.655-6.364-12.732-6.364
		c-4.059,0-7.531,1.327-10.414,3.978c-2.884,2.653-4.324,6.23-4.324,10.726c0,4.499,1.361,8.106,4.083,10.832
		C190.379,96.276,193.68,97.636,197.558,97.636z"/>
	<path fill="#FFFFFF" d="M225.824,65.215c-1.181-1.176-1.768-2.617-1.768-4.328c0-1.705,0.587-3.146,1.768-4.32
		c1.172-1.18,2.613-1.768,4.324-1.768c1.706,0,3.149,0.588,4.323,1.768c1.179,1.174,1.764,2.616,1.764,4.32
		c0,1.711-0.585,3.152-1.764,4.328c-1.174,1.175-2.617,1.765-4.323,1.765C228.438,66.98,226.996,66.391,225.824,65.215z
		 M235.337,107.187h-10.379V69.958h10.379V107.187z"/>
	<path fill="#FFFFFF" d="M255.611,58.814v11.144h8.995v8.095h-8.995v16.053c0,1.431,0.37,2.55,1.105,3.355
		c0.738,0.812,1.616,1.211,2.632,1.211c1.937,0,3.573-0.875,4.914-2.63l3.876,7.266c-3.232,2.954-6.631,4.43-10.208,4.43
		s-6.601-1.176-9.067-3.527c-2.468-2.354-3.702-5.561-3.702-9.62V58.814H255.611z"/>
	<path fill="#FFFFFF" d="M288.55,104.416c-10.009,0-15.018-5.349-15.018-16.052V69.958h10.45v15.084c0,3.692,0.495,6.297,1.487,7.82
		c0.99,1.521,2.701,2.281,5.121,2.281c2.421,0,4.256-0.728,5.503-2.179c1.246-1.453,1.869-3.516,1.869-6.192V69.884h10.445v31.28
		c0,6.506-1.715,11.576-5.154,15.226c-3.434,3.642-7.854,5.464-13.252,5.464c-4.195,0-7.875-1.062-11.04-3.183
		c-3.152-2.122-5.498-5.167-7.021-9.136l8.929-3.873c1.8,4.89,4.796,7.333,8.996,7.333c2.629,0,4.729-0.98,6.296-2.939
		c1.572-1.958,2.353-4.44,2.353-7.438c0-0.416-0.022-0.832-0.069-1.244C295.541,103.4,292.24,104.416,288.55,104.416z"/>
	<path fill="#FFFFFF" d="M340.241,68.156v39.031h-10.797V68.156h-13.702v-9.342h38.199v9.342H340.241z"/>
	<path fill="#FFFFFF" d="M387.99,107.187h-9.761v-4.5c-2.676,3.368-5.986,5.051-9.93,5.051c-3.945,0-7.256-1.142-9.933-3.423
		c-2.672-2.285-4.006-5.332-4.006-9.135c0-3.809,1.379-6.655,4.145-8.547c2.773-1.891,6.555-2.837,11.352-2.837h7.75v-0.209
		c0-3.968-2.1-5.95-6.299-5.95c-1.8,0-3.7,0.36-5.705,1.073c-2.01,0.717-3.704,1.603-5.087,2.662l-4.64-6.711
		c4.891-3.55,10.473-5.327,16.745-5.327c4.525,0,8.214,1.131,11.074,3.39c2.86,2.261,4.294,5.834,4.294,10.724V107.187z
		 M377.537,92.997v-1.795h-6.501c-4.156,0-6.229,1.29-6.229,3.873c0,1.338,0.494,2.362,1.488,3.079
		c0.991,0.718,2.409,1.074,4.256,1.074c1.843,0,3.47-0.565,4.878-1.697C376.837,96.401,377.537,94.89,377.537,92.997z"/>
	<path fill="#FFFFFF" d="M406.531,69.958l6.367,9.961l6.573-9.961h12.179l-12.803,18.198l13.287,19.031h-12.389l-7.265-10.243
		l-7.057,10.243h-11.973l13.012-18.967l-12.319-18.262H406.531z"/>
	<path fill="#FFFFFF" d="M438.879,74.977c-1.157-1.166-1.733-2.594-1.733-4.287c0-1.696,0.576-3.129,1.733-4.289
		c1.158-1.169,2.58-1.756,4.259-1.756c1.681,0,3.092,0.586,4.251,1.756c1.157,1.16,1.738,2.593,1.738,4.289
		c0,1.692-0.581,3.121-1.738,4.287c-1.159,1.168-2.57,1.748-4.251,1.748C441.459,76.725,440.037,76.145,438.879,74.977z
		 M448.24,107.187h-10.212V79.679h10.212V107.187z"/>
</g>
<g>
	<path fill="#FFFFFF" d="M325.091,126.516l-1.028-2.398h-4.652l-1.029,2.398h-2.639l4.795-11.094h2.398l4.787,11.094H325.091z
		 M321.743,118.728l-1.401,3.219h2.781L321.743,118.728z"/>
	<path fill="#FFFFFF" d="M333.732,117.842c0.999,0,1.883,0.413,2.664,1.243c0.771,0.825,1.162,1.876,1.162,3.132
		c0,1.257-0.391,2.308-1.162,3.153c-0.781,0.849-1.694,1.272-2.733,1.272c-1.041,0-1.876-0.419-2.515-1.256v4.207h-2.381v-11.61
		h2.381v0.948C331.878,118.202,332.744,117.842,333.732,117.842z M331.118,122.255c0,0.688,0.193,1.256,0.578,1.698
		c0.388,0.439,0.855,0.659,1.404,0.659c0.55,0,1.03-0.22,1.444-0.659c0.414-0.442,0.615-1.005,0.615-1.686
		c0-0.69-0.196-1.265-0.6-1.734c-0.396-0.465-0.883-0.693-1.445-0.693c-0.557,0-1.031,0.229-1.419,0.688
		C331.312,120.984,331.118,121.564,331.118,122.255z"/>
	<path fill="#FFFFFF" d="M341.715,126.516h-2.378v-11.772h2.378V126.516z"/>
	<path fill="#FFFFFF" d="M344.168,116.892c-0.275-0.267-0.408-0.596-0.408-0.986c0-0.397,0.133-0.731,0.408-0.999
		c0.271-0.265,0.602-0.406,0.989-0.406c0.396,0,0.723,0.142,0.994,0.406c0.268,0.268,0.404,0.602,0.404,0.999
		c0,0.391-0.137,0.72-0.404,0.986c-0.271,0.271-0.599,0.405-0.994,0.405C344.77,117.297,344.438,117.163,344.168,116.892z
		 M346.35,126.516h-2.38v-8.532h2.38V126.516z"/>
	<path fill="#FFFFFF" d="M352.699,124.528c0.786,0,1.508-0.395,2.139-1.187l1.413,1.583c-1.103,1.147-2.299,1.718-3.572,1.718
		c-1.278,0-2.362-0.407-3.249-1.215c-0.881-0.813-1.319-1.866-1.319-3.173c0-1.308,0.442-2.368,1.34-3.188
		c0.896-0.821,1.956-1.226,3.182-1.226c0.609,0,1.23,0.119,1.862,0.374c0.632,0.258,1.18,0.628,1.658,1.132l-1.233,1.618
		c-0.279-0.332-0.613-0.588-1.009-0.767c-0.397-0.178-0.8-0.269-1.184-0.269c-0.625,0-1.164,0.201-1.612,0.612
		c-0.448,0.404-0.674,0.974-0.674,1.696c0,0.726,0.226,1.285,0.674,1.689C351.563,124.332,352.095,124.528,352.699,124.528z"/>
	<path fill="#FFFFFF" d="M365.079,126.516h-2.231v-1.033c-0.611,0.772-1.376,1.16-2.278,1.16c-0.901,0-1.664-0.259-2.273-0.787
		c-0.613-0.524-0.923-1.22-0.923-2.094s0.316-1.528,0.955-1.952c0.634-0.443,1.502-0.654,2.598-0.654h1.777v-0.053
		c0-0.91-0.483-1.357-1.44-1.357c-0.412,0-0.854,0.079-1.31,0.24c-0.458,0.162-0.853,0.365-1.162,0.612l-1.07-1.54
		c1.122-0.815,2.4-1.216,3.844-1.216c1.034,0,1.883,0.261,2.531,0.771c0.66,0.522,0.983,1.335,0.983,2.458V126.516z
		 M362.691,123.267v-0.418h-1.496c-0.948,0-1.425,0.302-1.425,0.892c0,0.307,0.116,0.538,0.337,0.703
		c0.229,0.162,0.556,0.251,0.977,0.251c0.425,0,0.795-0.135,1.122-0.396C362.525,124.04,362.691,123.694,362.691,123.267z"/>
	<path fill="#FFFFFF" d="M371.351,124.528c0.795,0,1.512-0.395,2.138-1.187l1.416,1.583c-1.104,1.147-2.288,1.718-3.571,1.718
		c-1.277,0-2.356-0.407-3.242-1.215c-0.883-0.813-1.324-1.866-1.324-3.173c0-1.308,0.446-2.368,1.339-3.188
		c0.898-0.821,1.956-1.226,3.177-1.226c0.616,0,1.24,0.119,1.867,0.374c0.632,0.258,1.185,0.628,1.659,1.132l-1.236,1.618
		c-0.276-0.332-0.614-0.588-1.013-0.767c-0.396-0.178-0.788-0.269-1.182-0.269c-0.622,0-1.155,0.201-1.604,0.612
		c-0.449,0.404-0.679,0.974-0.679,1.696c0,0.726,0.229,1.285,0.679,1.689C370.223,124.332,370.748,124.528,371.351,124.528z"/>
	<path fill="#FFFFFF" d="M376.689,116.892c-0.271-0.267-0.404-0.596-0.404-0.986c0-0.397,0.133-0.731,0.404-0.999
		c0.271-0.265,0.6-0.406,0.987-0.406c0.395,0,0.723,0.142,0.995,0.406c0.268,0.268,0.403,0.602,0.403,0.999
		c0,0.391-0.136,0.72-0.403,0.986c-0.272,0.271-0.601,0.405-0.995,0.405C377.289,117.297,376.961,117.163,376.689,116.892z
		 M378.871,126.516h-2.384v-8.532h2.384V126.516z"/>
	<path fill="#FFFFFF" d="M389.657,122.244c0,1.241-0.421,2.28-1.284,3.126c-0.857,0.849-1.936,1.272-3.229,1.272
		c-1.298,0-2.372-0.424-3.229-1.272c-0.855-0.846-1.282-1.885-1.282-3.126c0-1.239,0.427-2.278,1.282-3.129
		c0.856-0.852,1.931-1.273,3.229-1.273c1.294,0,2.372,0.422,3.229,1.273C389.236,119.966,389.657,121.005,389.657,122.244z
		 M383.027,122.244c0,0.698,0.202,1.267,0.6,1.709c0.391,0.439,0.9,0.659,1.517,0.659c0.622,0,1.128-0.22,1.523-0.659
		c0.4-0.442,0.6-1.011,0.6-1.709c0-0.697-0.199-1.269-0.6-1.711c-0.396-0.444-0.901-0.664-1.523-0.664
		c-0.616,0-1.126,0.22-1.517,0.664C383.229,120.976,383.027,121.547,383.027,122.244z M386.042,116.828h-2.271l2.014-2.813
		l2.461,1.031L386.042,116.828z"/>
	<path fill="#FFFFFF" d="M393.782,121.756v4.76h-2.376v-8.532h2.376v0.948c0.717-0.729,1.525-1.09,2.429-1.09
		c0.897,0,1.652,0.313,2.266,0.945c0.604,0.635,0.91,1.485,0.91,2.541v5.188h-2.38v-4.82c0-1.317-0.484-1.971-1.446-1.971
		c-0.472,0-0.893,0.177-1.243,0.512C393.964,120.58,393.782,121.089,393.782,121.756z"/>
	<path fill="#FFFFFF" d="M413.565,121.914v4.602h-2.395v-4.664c0-0.677-0.098-1.177-0.307-1.49c-0.207-0.32-0.539-0.479-1.004-0.479
		c-0.46,0-0.867,0.175-1.216,0.516c-0.36,0.341-0.532,0.846-0.532,1.516v4.602h-2.381v-8.532h2.381v0.964
		c0.653-0.74,1.408-1.105,2.25-1.105c0.541,0,1.027,0.156,1.466,0.475c0.441,0.313,0.768,0.699,0.995,1.156
		c0.326-0.519,0.767-0.922,1.324-1.203c0.552-0.286,1.114-0.428,1.676-0.428c1,0,1.812,0.293,2.423,0.89
		c0.611,0.598,0.915,1.461,0.915,2.597v5.188h-2.387v-4.664c0-1.309-0.48-1.969-1.443-1.969c-0.475,0-0.891,0.175-1.24,0.516
		C413.744,120.739,413.565,121.244,413.565,121.914z"/>
	<path fill="#FFFFFF" d="M429.861,122.244c0,1.241-0.428,2.28-1.283,3.126c-0.862,0.849-1.934,1.272-3.233,1.272
		c-1.29,0-2.373-0.424-3.224-1.272c-0.855-0.846-1.288-1.885-1.288-3.126c0-1.239,0.433-2.278,1.288-3.129
		c0.851-0.852,1.934-1.273,3.224-1.273c1.3,0,2.371,0.422,3.233,1.273C429.434,119.966,429.861,121.005,429.861,122.244z
		 M423.228,122.244c0,0.698,0.201,1.267,0.598,1.709c0.393,0.439,0.903,0.659,1.52,0.659c0.623,0,1.132-0.22,1.522-0.659
		c0.397-0.442,0.604-1.011,0.604-1.709c0-0.697-0.206-1.269-0.604-1.711c-0.391-0.444-0.899-0.664-1.522-0.664
		c-0.616,0-1.127,0.22-1.52,0.664C423.429,120.976,423.228,121.547,423.228,122.244z M426.241,116.828h-2.27l2.015-2.813
		l2.463,1.031L426.241,116.828z"/>
	<path fill="#FFFFFF" d="M433.905,126.516l-3.382-8.555h2.482l2.122,5.381l2.128-5.381h2.469l-3.378,8.555H433.905z"/>
	<path fill="#FFFFFF" d="M441.102,116.892c-0.27-0.267-0.409-0.596-0.409-0.986c0-0.397,0.14-0.731,0.409-0.999
		c0.273-0.265,0.598-0.406,0.988-0.406c0.393,0,0.725,0.142,0.99,0.406c0.276,0.268,0.408,0.602,0.408,0.999
		c0,0.391-0.132,0.72-0.408,0.986c-0.266,0.271-0.598,0.405-0.99,0.405C441.699,117.297,441.375,117.163,441.102,116.892z
		 M443.279,126.516h-2.377v-8.532h2.377V126.516z"/>
	<path fill="#FFFFFF" d="M447.915,126.516h-2.382v-11.772h2.382V126.516z"/>
</g>
<g>
	<path fill="#FFFFFF" d="M103.782,91.578h3.242c0.1,0,0.184-0.61,0.184-1.366c0-0.758-0.084-1.367-0.184-1.367h-3.242
		c-0.104,0-0.188,0.609-0.188,1.367C103.595,90.968,103.679,91.578,103.782,91.578z"/>
	<path fill="#FFFFFF" d="M110.527,92.954c0-0.766-0.079-1.376-0.184-1.376H107.1c-0.1,0-0.184,0.61-0.184,1.376
		c0,0.434,0.027,0.803,0.073,1.049h-3.16c0.041-0.246,0.073-0.615,0.073-1.049c0-0.766-0.085-1.376-0.188-1.376h-3.24
		c-0.104,0-0.184,0.61-0.184,1.376c0,0.434,0.028,0.803,0.069,1.049h-2.9c-0.104,0-0.187,0.614-0.187,1.372
		c0,0.751,0.082,1.368,0.187,1.368h3.245c0.103,0,0.182-0.617,0.182-1.368c0-0.435-0.026-0.803-0.072-1.054h2.854
		c-0.039,0.251-0.073,0.619-0.073,1.054c0,0.751,0.084,1.368,0.188,1.368h3.242c0.1,0,0.184-0.617,0.184-1.368
		c0-0.435-0.027-0.803-0.072-1.054h3.208C110.448,94.321,110.527,93.708,110.527,92.954z"/>
	<path fill="#FFFFFF" d="M81.236,82.037c-0.047,0.108-0.745,1.654,1.027,1.654h9.045l-0.024,0.084c2.495,0,2.38-2.326,2.38-2.326
		l0.035,0.008V66.98C88.177,70.021,84.417,74.684,81.236,82.037z"/>
	<path fill="#FFFFFF" d="M97.472,92.954c0-0.766-0.079-1.376-0.184-1.376h3.107c0.104,0,0.186-0.61,0.186-1.366
		c0-0.758-0.081-1.367-0.186-1.367h-3.242c-0.103,0-0.188,0.609-0.188,1.367c0,0.756,0.085,1.366,0.188,1.366h-3.107
		c-0.101,0-0.186,0.61-0.186,1.376c0,0.754,0.085,1.367,0.186,1.367h3.242C97.393,94.321,97.472,93.708,97.472,92.954z"/>
	<path fill="#FFFFFF" d="M106.121,62.712c-3.363,0.461-6.902,1.253-9.11,2.5v16.1c0,0.485,0.23,2.378,1.857,2.378h22.195
		c2.131,0,2.081-2.352,2.081-2.352l0.044,0.184c0.032-0.444,0.07-0.894,0.07-1.332C123.259,68.562,119.281,60.916,106.121,62.712z"
		/>
	<path fill="#FFFFFF" d="M106.197,40.325c0,0-55.324-6.174-55.324,39.896c0,46.063,34.429,43.685,39.653,43.685
		c5.228,0,28.854-2.83,31.443-0.139c4.836,4.423,4.836,4.423,4.836,4.423s5.204,6.499,19.605,5.692
		c15.143-0.837,15.599-24.222,15.599-37.987C162.01,82.116,172.217,40.325,106.197,40.325z M83.906,107.622
		c-3.343,0-6.057-2.709-6.057-6.057c0-3.344,2.714-6.052,6.057-6.052c3.346,0,6.056,2.708,6.056,6.052
		C89.962,104.913,87.252,107.622,83.906,107.622z M123.479,107.271c-3.149,0-5.705-2.55-5.705-5.705c0-3.148,2.556-5.7,5.705-5.7
		c3.151,0,5.704,2.552,5.704,5.7C129.184,104.721,126.631,107.271,123.479,107.271z M140.063,92.711
		c0,3.563-1.721,6.525-4.306,8.145c-2.256,1.233-3.485-0.823-3.793-1.734c-0.037-0.111-0.077-0.223-0.113-0.335
		c-0.012-0.039-0.037-0.069-0.037-0.069l-0.047-0.005c-1.183-3.495-4.563-6.04-8.459-6.04c-4.06,0-7.567,2.697-8.682,6.429
		c0.025-0.006-0.704,2.255-3.439,2.255H97.019c-2.896,0-3.798-0.129-4.075-1.788c-0.787-4.286-4.551-7.206-9.069-7.206
		c-1.396,0-2.747,0.32-3.933,0.878c-1.063,0.553-5.148,3.558-5.99,0.203c-0.021-0.243-0.052-1.406-0.052-1.455
		c0.133-16.455,11.739-30.206,27.177-33.747c0.045-4.277,3.348-7.762,7.634-7.762c4.116,0,4.74,3.119,4.793,7.147
		c11.927,1.996,14.046,12.818,14.42,24.964h3.471c5.152,0,8.67,4.404,8.67,9.556V92.711z"/>
	<path fill="#FFFFFF" d="M113.79,94.003h-3.242c-0.104,0-0.184,0.614-0.184,1.372c0,0.751,0.079,1.368,0.184,1.368h3.242
		c0.105,0,0.187-0.617,0.187-1.368C113.977,94.617,113.896,94.003,113.79,94.003z"/>
	<path fill="#FFFFFF" d="M113.79,88.845h-3.242c-0.104,0-0.184,0.609-0.184,1.367c0,0.756,0.079,1.366,0.184,1.366h3.242
		c0.105,0,0.187-0.61,0.187-1.366C113.977,89.454,113.896,88.845,113.79,88.845z"/>
</g>
</svg>
