<svg xmlns="http://www.w3.org/2000/svg" width="500" height="168.5" viewBox="0 0 500 168.5"><path fill="#010300" d="M-498.803 40.325s-55.324-6.174-55.324 39.896c0 46.064 34.43 43.686 39.653 43.686 5.228 0 28.854-2.83 31.443-.14l4.835 4.424s5.204 6.5 19.605 5.692c15.143-.837 15.6-24.222 15.6-37.987 0-13.78 10.207-55.57-55.813-55.57z"/><g fill="#010300"><path d="M-407.442 97.636c5.302 0 9.64-2.1 13.008-6.297l6.917 7.123c-5.49 6.184-11.96 9.274-19.406 9.274-7.454 0-13.588-2.355-18.408-7.06-4.823-4.705-7.232-10.645-7.232-17.816 0-7.174 2.455-13.158 7.37-17.956 4.912-4.798 10.92-7.198 18.023-7.198 7.937 0 14.58 3.022 19.935 9.066l-6.717 7.61c-3.412-4.244-7.655-6.365-12.732-6.365-4.06 0-7.53 1.327-10.414 3.978-2.884 2.653-4.324 6.23-4.324 10.726 0 4.5 1.36 8.107 4.083 10.833 2.72 2.723 6.02 4.083 9.898 4.083zM-379.176 65.215c-1.18-1.176-1.768-2.617-1.768-4.328 0-1.705.587-3.146 1.768-4.32 1.172-1.18 2.613-1.768 4.324-1.768 1.706 0 3.15.587 4.323 1.767 1.18 1.174 1.765 2.616 1.765 4.32 0 1.71-.585 3.152-1.764 4.328-1.173 1.175-2.616 1.765-4.322 1.765-1.71 0-3.152-.59-4.324-1.765zm9.513 41.972h-10.38v-37.23h10.38v37.23zM-349.39 58.814v11.144h8.996v8.095h-8.995v16.053c0 1.43.37 2.55 1.106 3.355.738.813 1.616 1.212 2.632 1.212 1.937 0 3.573-.875 4.914-2.63l3.876 7.266c-3.232 2.954-6.63 4.43-10.208 4.43s-6.6-1.176-9.067-3.527c-2.468-2.353-3.702-5.56-3.702-9.62V58.815h10.45zM-316.45 104.416c-10.01 0-15.018-5.35-15.018-16.052V69.958h10.45v15.084c0 3.692.495 6.297 1.487 7.82.99 1.52 2.7 2.28 5.12 2.28s4.256-.727 5.503-2.178c1.246-1.453 1.87-3.516 1.87-6.192V69.884h10.444v31.28c0 6.506-1.715 11.576-5.154 15.226-3.434 3.642-7.854 5.464-13.252 5.464-4.194 0-7.874-1.062-11.04-3.183-3.15-2.12-5.497-5.166-7.02-9.135l8.93-3.873c1.8 4.89 4.795 7.333 8.995 7.333 2.63 0 4.73-.98 6.296-2.94 1.573-1.957 2.354-4.44 2.354-7.437 0-.416-.022-.832-.07-1.244-2.903 2.026-6.204 3.042-9.894 3.042zM-264.76 68.156v39.03h-10.796v-39.03h-13.702v-9.342h38.2v9.342h-13.7zM-217.01 107.187h-9.76v-4.5c-2.677 3.368-5.987 5.05-9.93 5.05-3.946 0-7.257-1.14-9.934-3.422-2.672-2.285-4.006-5.332-4.006-9.135 0-3.81 1.38-6.655 4.145-8.547 2.773-1.89 6.555-2.837 11.352-2.837h7.75v-.21c0-3.967-2.1-5.95-6.3-5.95-1.8 0-3.7.36-5.704 1.074-2.01.717-3.704 1.603-5.087 2.662l-4.64-6.71c4.89-3.55 10.473-5.328 16.745-5.328 4.526 0 8.215 1.13 11.075 3.39 2.86 2.26 4.294 5.834 4.294 10.724v23.74zm-10.453-14.19v-1.795h-6.5c-4.157 0-6.23 1.29-6.23 3.873 0 1.338.494 2.362 1.488 3.08.99.717 2.41 1.073 4.256 1.073 1.844 0 3.47-.565 4.88-1.697 1.407-1.13 2.107-2.64 2.107-4.533zM-198.47 69.958l6.368 9.96 6.573-9.96h12.18l-12.803 18.198 13.287 19.03h-12.39l-7.264-10.242-7.057 10.243h-11.973l13.012-18.967-12.32-18.262h12.39zM-166.12 74.977c-1.158-1.166-1.734-2.594-1.734-4.287 0-1.696.576-3.13 1.733-4.29 1.157-1.168 2.58-1.755 4.258-1.755 1.68 0 3.092.586 4.25 1.756 1.158 1.16 1.74 2.594 1.74 4.29 0 1.692-.582 3.12-1.74 4.287-1.158 1.168-2.57 1.748-4.25 1.748-1.68 0-3.1-.58-4.26-1.748zm9.36 32.21h-10.212V79.68h10.212v27.507z"/></g><g fill="#010300"><path d="M-279.91 126.516l-1.027-2.398h-4.652l-1.028 2.398h-2.64l4.796-11.094h2.398l4.787 11.094h-2.632zm-3.347-7.788l-1.4 3.22h2.78l-1.38-3.22zM-271.268 117.842c1 0 1.883.413 2.664 1.243.77.825 1.162 1.876 1.162 3.132 0 1.257-.39 2.308-1.162 3.153-.78.85-1.694 1.272-2.733 1.272-1.04 0-1.876-.42-2.515-1.256v4.207h-2.38v-11.61h2.38v.948c.73-.728 1.596-1.088 2.584-1.088zm-2.614 4.413c0 .688.193 1.256.578 1.698.388.44.855.66 1.404.66.55 0 1.03-.22 1.444-.66.414-.442.615-1.005.615-1.686 0-.69-.197-1.265-.6-1.734-.397-.465-.884-.693-1.446-.693-.557 0-1.03.23-1.42.688-.382.456-.576 1.036-.576 1.727zM-263.285 126.516h-2.378v-11.772h2.378v11.772zM-260.832 116.892c-.275-.267-.408-.596-.408-.986 0-.397.133-.73.408-1 .27-.264.602-.405.99-.405.395 0 .722.143.993.407.27.268.405.602.405 1 0 .39-.137.72-.404.985-.27.27-.598.405-.993.405-.387 0-.72-.134-.99-.405zm2.182 9.624h-2.38v-8.532h2.38v8.532zM-252.3 124.528c.785 0 1.507-.395 2.138-1.187l1.413 1.584c-1.102 1.147-2.298 1.718-3.57 1.718-1.28 0-2.363-.407-3.25-1.215-.88-.813-1.32-1.866-1.32-3.173 0-1.308.443-2.368 1.34-3.188.897-.82 1.957-1.226 3.183-1.226.61 0 1.23.12 1.862.374.632.258 1.18.628 1.658 1.132l-1.233 1.618c-.28-.332-.613-.588-1.01-.767-.396-.178-.8-.27-1.183-.27-.625 0-1.164.202-1.612.613-.448.404-.674.974-.674 1.696 0 .726.227 1.285.675 1.69.447.406.98.602 1.584.602zM-239.92 126.516h-2.232v-1.033c-.61.772-1.376 1.16-2.278 1.16-.9 0-1.664-.26-2.273-.787-.613-.524-.923-1.22-.923-2.094s.316-1.528.955-1.952c.633-.443 1.5-.654 2.597-.654h1.777v-.053c0-.91-.483-1.357-1.44-1.357-.412 0-.854.08-1.31.24-.458.162-.853.365-1.162.612l-1.07-1.54c1.122-.815 2.4-1.216 3.844-1.216 1.034 0 1.883.26 2.53.77.66.523.984 1.336.984 2.46v5.444zm-2.39-3.25v-.417h-1.495c-.948 0-1.425.3-1.425.89 0 .308.116.54.337.704.23.162.556.25.977.25.425 0 .795-.134 1.122-.395.32-.26.485-.606.485-1.033zM-233.65 124.528c.796 0 1.513-.395 2.14-1.187l1.415 1.584c-1.104 1.147-2.288 1.718-3.57 1.718-1.278 0-2.357-.407-3.243-1.215-.883-.813-1.324-1.866-1.324-3.173 0-1.308.446-2.368 1.34-3.188.897-.82 1.955-1.226 3.176-1.226.616 0 1.24.12 1.867.374.633.258 1.186.628 1.66 1.132l-1.236 1.618c-.276-.332-.614-.588-1.013-.767-.395-.178-.787-.27-1.18-.27-.623 0-1.156.202-1.605.613-.45.404-.68.974-.68 1.696 0 .726.23 1.285.68 1.69.448.406.973.602 1.576.602zM-228.31 116.892c-.272-.267-.405-.596-.405-.986 0-.397.133-.73.404-1 .27-.264.6-.405.986-.405.395 0 .723.143.995.407.27.268.404.602.404 1 0 .39-.136.72-.403.985-.27.27-.6.405-.994.405-.387 0-.715-.134-.987-.405zm2.18 9.624h-2.383v-8.532h2.384v8.532zM-215.343 122.244c0 1.24-.42 2.28-1.284 3.126-.857.85-1.936 1.272-3.23 1.272-1.297 0-2.37-.424-3.228-1.272-.855-.846-1.282-1.885-1.282-3.126 0-1.24.427-2.278 1.282-3.13.856-.85 1.93-1.272 3.23-1.272 1.293 0 2.37.422 3.228 1.273.863.85 1.284 1.89 1.284 3.13zm-6.63 0c0 .698.202 1.267.6 1.71.39.438.9.658 1.517.658.622 0 1.128-.22 1.523-.66.4-.44.6-1.01.6-1.708 0-.697-.2-1.27-.6-1.71-.396-.445-.9-.665-1.523-.665-.616 0-1.126.22-1.517.663-.398.443-.6 1.014-.6 1.71zm3.015-5.416h-2.27l2.013-2.813 2.46 1.03-2.203 1.783zM-211.218 121.756v4.76h-2.376v-8.532h2.376v.948c.717-.73 1.525-1.09 2.43-1.09.896 0 1.65.313 2.265.945.604.635.91 1.485.91 2.54v5.19h-2.38v-4.82c0-1.318-.484-1.972-1.446-1.972-.47 0-.892.177-1.242.512-.354.343-.536.852-.536 1.52zM-191.435 121.914v4.602h-2.395v-4.664c0-.677-.098-1.177-.307-1.49-.207-.32-.54-.48-1.004-.48-.46 0-.868.176-1.217.517-.36.34-.532.845-.532 1.515v4.602h-2.38v-8.532h2.38v.964c.654-.74 1.41-1.106 2.25-1.106.542 0 1.028.156 1.467.475.44.312.768.698.995 1.155.326-.52.767-.922 1.324-1.203.552-.286 1.114-.428 1.676-.428 1 0 1.812.293 2.423.89.61.598.915 1.46.915 2.597v5.19h-2.387v-4.665c0-1.31-.48-1.97-1.443-1.97-.475 0-.89.176-1.24.517-.346.337-.525.842-.525 1.512zM-175.14 122.244c0 1.24-.427 2.28-1.282 3.126-.862.85-1.934 1.272-3.233 1.272-1.29 0-2.373-.424-3.224-1.272-.854-.846-1.287-1.885-1.287-3.126 0-1.24.433-2.278 1.288-3.13.852-.85 1.935-1.272 3.225-1.272 1.3 0 2.37.422 3.233 1.273.856.85 1.283 1.89 1.283 3.13zm-6.632 0c0 .698.2 1.267.598 1.71.393.438.903.658 1.52.658.623 0 1.132-.22 1.522-.66.397-.44.604-1.01.604-1.708 0-.697-.206-1.27-.604-1.71-.39-.445-.9-.665-1.522-.665-.616 0-1.127.22-1.52.663-.397.443-.598 1.014-.598 1.71zm3.013-5.416h-2.27l2.016-2.813 2.463 1.03-2.21 1.783zM-171.095 126.516l-3.382-8.555h2.482l2.122 5.382 2.128-5.38h2.47l-3.38 8.554h-2.44zM-163.898 116.892c-.27-.267-.41-.596-.41-.986 0-.397.14-.73.41-1 .273-.264.598-.405.988-.405.393 0 .725.143.99.407.276.268.408.602.408 1 0 .39-.132.72-.408.985-.266.27-.598.405-.99.405-.39 0-.715-.134-.988-.405zm2.177 9.624h-2.378v-8.532h2.377v8.532zM-157.085 126.516h-2.382v-11.772h2.382v11.772z"/></g><g fill="#FFF"><path d="M-487.226 101.565c0 3.155 2.556 5.705 5.705 5.705 3.15 0 5.703-2.55 5.703-5.705 0-3.148-2.553-5.7-5.704-5.7-3.15 0-5.706 2.552-5.706 5.7z"/><circle cx="-521.094" cy="101.565" r="6.056"/><path d="M-473.606 82.59h-3.47c-.375-12.145-2.494-22.967-14.42-24.963-.054-4.028-.678-7.147-4.794-7.147-4.286 0-7.59 3.484-7.634 7.762-15.438 3.54-27.044 17.292-27.177 33.747 0 .048.03 1.21.05 1.454.843 3.354 4.928.35 5.99-.203 1.187-.557 2.537-.877 3.934-.877 4.52 0 8.282 2.92 9.07 7.206.276 1.658 1.18 1.787 4.074 1.787h14.17c2.734 0 3.464-2.26 3.438-2.255 1.114-3.73 4.622-6.43 8.682-6.43 3.896 0 7.276 2.546 8.46 6.04l.046.006s.025.03.037.07l.114.334c.308.91 1.537 2.968 3.793 1.734 2.585-1.62 4.306-4.58 4.306-8.145v-.563c0-5.152-3.517-9.556-8.67-9.556zm-37.695-1.133l-.036-.008s.115 2.325-2.38 2.325l.024-.084h-9.045c-1.772 0-1.074-1.545-1.027-1.653 3.18-7.353 6.94-12.015 12.463-15.057v14.477zm.346 12.864c-.1 0-.186-.612-.186-1.366 0-.766.085-1.376.186-1.376h3.107c-.103 0-.188-.61-.188-1.366 0-.758.085-1.367.188-1.367h3.242c.104 0 .186.61.186 1.367 0 .756-.08 1.366-.185 1.366h-3.107c.104 0 .184.61.184 1.376 0 .754-.08 1.367-.184 1.367h-3.242zm13.162 1.055c0 .75-.084 1.368-.184 1.368h-3.242c-.104 0-.188-.617-.188-1.368 0-.435.034-.803.073-1.054h-2.854c.046.252.072.62.072 1.055 0 .75-.08 1.368-.182 1.368h-3.245c-.104 0-.187-.617-.187-1.368 0-.758.083-1.372.188-1.372h2.9c-.04-.246-.07-.615-.07-1.05 0-.765.08-1.375.185-1.375h3.24c.103 0 .188.61.188 1.376 0 .434-.03.803-.072 1.05h3.16c-.046-.247-.073-.616-.073-1.05 0-.766.084-1.376.184-1.376h3.243c.104 0 .184.61.184 1.376 0 .754-.08 1.367-.184 1.367h-3.208c.046.252.073.62.073 1.055zm-3.613-5.163c0-.758.084-1.367.188-1.367h3.242c.1 0 .184.61.184 1.367 0 .756-.085 1.366-.185 1.366h-3.242c-.104 0-.188-.61-.188-1.366zm10.195 6.53h-3.242c-.104 0-.184-.616-.184-1.367 0-.758.08-1.372.184-1.372h3.242c.105 0 .187.614.187 1.372 0 .75-.08 1.368-.187 1.368zm0-5.164h-3.242c-.104 0-.184-.61-.184-1.366 0-.758.08-1.367.184-1.367h3.242c.105 0 .187.61.187 1.367 0 .756-.08 1.366-.187 1.366zm9.398-10.056l-.044-.184s.05 2.352-2.08 2.352h-22.196c-1.627 0-1.857-1.894-1.857-2.378v-16.1c2.21-1.247 5.748-2.038 9.11-2.5 13.16-1.797 17.14 5.85 17.14 17.48 0 .436-.04.886-.072 1.33z"/></g><g fill="#FFF"><path d="M197.558 97.636c5.302 0 9.64-2.1 13.008-6.297l6.917 7.123c-5.49 6.184-11.96 9.274-19.406 9.274-7.454 0-13.588-2.355-18.408-7.06-4.823-4.705-7.232-10.645-7.232-17.816 0-7.174 2.455-13.158 7.37-17.956 4.912-4.798 10.92-7.198 18.023-7.198 7.937 0 14.58 3.022 19.935 9.066l-6.717 7.61c-3.412-4.244-7.655-6.365-12.732-6.365-4.06 0-7.53 1.327-10.414 3.978-2.884 2.653-4.324 6.23-4.324 10.726 0 4.5 1.36 8.107 4.083 10.833 2.72 2.723 6.02 4.083 9.898 4.083zM225.824 65.215c-1.18-1.176-1.768-2.617-1.768-4.328 0-1.705.587-3.146 1.768-4.32 1.172-1.18 2.613-1.768 4.324-1.768 1.706 0 3.15.587 4.323 1.767 1.18 1.174 1.765 2.616 1.765 4.32 0 1.71-.585 3.152-1.764 4.328-1.173 1.175-2.616 1.765-4.322 1.765-1.71 0-3.152-.59-4.324-1.765zm9.513 41.972h-10.38v-37.23h10.38v37.23zM255.61 58.814v11.144h8.996v8.095h-8.995v16.053c0 1.43.37 2.55 1.106 3.355.738.813 1.616 1.212 2.632 1.212 1.937 0 3.573-.875 4.914-2.63l3.876 7.266c-3.232 2.954-6.63 4.43-10.208 4.43s-6.6-1.176-9.067-3.527c-2.468-2.353-3.702-5.56-3.702-9.62V58.815h10.45zM288.55 104.416c-10.01 0-15.018-5.35-15.018-16.052V69.958h10.45v15.084c0 3.692.495 6.297 1.487 7.82.99 1.52 2.7 2.28 5.12 2.28s4.256-.727 5.503-2.178c1.246-1.453 1.87-3.516 1.87-6.192V69.884h10.444v31.28c0 6.506-1.715 11.576-5.154 15.226-3.434 3.642-7.854 5.464-13.252 5.464-4.194 0-7.874-1.062-11.04-3.183-3.15-2.12-5.497-5.166-7.02-9.135l8.93-3.873c1.8 4.89 4.795 7.333 8.995 7.333 2.63 0 4.73-.98 6.296-2.94 1.573-1.957 2.354-4.44 2.354-7.437 0-.416-.022-.832-.07-1.244-2.903 2.026-6.204 3.042-9.894 3.042zM340.24 68.156v39.03h-10.796v-39.03h-13.702v-9.342h38.2v9.342h-13.7zM387.99 107.187h-9.76v-4.5c-2.677 3.368-5.987 5.05-9.93 5.05-3.946 0-7.257-1.14-9.934-3.422-2.672-2.285-4.006-5.332-4.006-9.135 0-3.81 1.38-6.655 4.145-8.547 2.773-1.89 6.555-2.837 11.352-2.837h7.75v-.21c0-3.967-2.1-5.95-6.3-5.95-1.8 0-3.7.36-5.704 1.074-2.01.717-3.704 1.603-5.087 2.662l-4.64-6.71c4.89-3.55 10.473-5.328 16.745-5.328 4.526 0 8.215 1.13 11.075 3.39 2.86 2.26 4.294 5.834 4.294 10.724v23.74zm-10.453-14.19v-1.795h-6.5c-4.157 0-6.23 1.29-6.23 3.873 0 1.338.494 2.362 1.488 3.08.99.717 2.41 1.073 4.256 1.073 1.844 0 3.47-.565 4.88-1.697 1.407-1.13 2.107-2.64 2.107-4.533zM406.53 69.958l6.368 9.96 6.573-9.96h12.18l-12.803 18.198 13.287 19.03h-12.39l-7.264-10.242-7.057 10.243H393.45l13.012-18.967-12.32-18.262h12.39zM438.88 74.977c-1.158-1.166-1.734-2.594-1.734-4.287 0-1.696.576-3.13 1.733-4.29 1.157-1.168 2.58-1.755 4.258-1.755 1.68 0 3.092.586 4.25 1.756 1.158 1.16 1.74 2.594 1.74 4.29 0 1.692-.582 3.12-1.74 4.287-1.158 1.168-2.57 1.748-4.25 1.748-1.68 0-3.1-.58-4.26-1.748zm9.36 32.21h-10.212V79.68h10.212v27.507z"/></g><g fill="#FFF"><path d="M325.09 126.516l-1.027-2.398h-4.652l-1.028 2.398h-2.64l4.796-11.094h2.398l4.787 11.094h-2.632zm-3.347-7.788l-1.4 3.22h2.78l-1.38-3.22zM333.732 117.842c1 0 1.883.413 2.664 1.243.77.825 1.162 1.876 1.162 3.132 0 1.257-.39 2.308-1.162 3.153-.78.85-1.694 1.272-2.733 1.272-1.04 0-1.876-.42-2.515-1.256v4.207h-2.38v-11.61h2.38v.948c.73-.728 1.596-1.088 2.584-1.088zm-2.614 4.413c0 .688.193 1.256.578 1.698.388.44.855.66 1.404.66.55 0 1.03-.22 1.444-.66.414-.442.615-1.005.615-1.686 0-.69-.197-1.265-.6-1.734-.397-.465-.884-.693-1.446-.693-.557 0-1.03.23-1.42.688-.382.456-.576 1.036-.576 1.727zM341.715 126.516h-2.378v-11.772h2.378v11.772zM344.168 116.892c-.275-.267-.408-.596-.408-.986 0-.397.133-.73.408-1 .27-.264.602-.405.99-.405.395 0 .722.143.993.407.27.268.405.602.405 1 0 .39-.137.72-.404.985-.27.27-.598.405-.993.405-.387 0-.72-.134-.99-.405zm2.182 9.624h-2.38v-8.532h2.38v8.532zM352.7 124.528c.785 0 1.507-.395 2.138-1.187l1.413 1.584c-1.102 1.147-2.298 1.718-3.57 1.718-1.28 0-2.363-.407-3.25-1.215-.88-.813-1.32-1.866-1.32-3.173 0-1.308.443-2.368 1.34-3.188.897-.82 1.957-1.226 3.183-1.226.61 0 1.23.12 1.862.374.632.258 1.18.628 1.658 1.132l-1.233 1.618c-.28-.332-.613-.588-1.01-.767-.396-.178-.8-.27-1.183-.27-.625 0-1.164.202-1.612.613-.448.404-.674.974-.674 1.696 0 .726.227 1.285.675 1.69.448.406.98.602 1.584.602zM365.08 126.516h-2.232v-1.033c-.61.772-1.376 1.16-2.278 1.16-.9 0-1.664-.26-2.273-.787-.613-.524-.923-1.22-.923-2.094s.316-1.528.955-1.952c.633-.443 1.5-.654 2.597-.654h1.777v-.053c0-.91-.483-1.357-1.44-1.357-.412 0-.854.08-1.31.24-.458.162-.853.365-1.162.612l-1.07-1.54c1.122-.815 2.4-1.216 3.844-1.216 1.034 0 1.883.26 2.53.77.66.523.984 1.336.984 2.46v5.444zm-2.39-3.25v-.417h-1.495c-.948 0-1.425.3-1.425.89 0 .308.116.54.337.704.23.162.556.25.977.25.425 0 .795-.134 1.122-.395.32-.26.485-.606.485-1.033zM371.35 124.528c.796 0 1.513-.395 2.14-1.187l1.415 1.584c-1.104 1.147-2.288 1.718-3.57 1.718-1.278 0-2.357-.407-3.243-1.215-.883-.813-1.324-1.866-1.324-3.173 0-1.308.446-2.368 1.34-3.188.897-.82 1.955-1.226 3.176-1.226.616 0 1.24.12 1.867.374.633.258 1.186.628 1.66 1.132l-1.236 1.618c-.276-.332-.614-.588-1.013-.767-.395-.178-.787-.27-1.18-.27-.623 0-1.156.202-1.605.613-.45.404-.68.974-.68 1.696 0 .726.23 1.285.68 1.69.448.406.973.602 1.576.602zM376.69 116.892c-.272-.267-.405-.596-.405-.986 0-.397.133-.73.404-1 .27-.264.6-.405.986-.405.395 0 .723.143.995.407.27.268.404.602.404 1 0 .39-.136.72-.403.985-.27.27-.6.405-.994.405-.387 0-.715-.134-.987-.405zm2.18 9.624h-2.383v-8.532h2.384v8.532zM389.657 122.244c0 1.24-.42 2.28-1.284 3.126-.857.85-1.936 1.272-3.23 1.272-1.297 0-2.37-.424-3.228-1.272-.855-.846-1.282-1.885-1.282-3.126 0-1.24.427-2.278 1.282-3.13.856-.85 1.93-1.272 3.23-1.272 1.293 0 2.37.422 3.228 1.273.863.85 1.284 1.89 1.284 3.13zm-6.63 0c0 .698.202 1.267.6 1.71.39.438.9.658 1.517.658.622 0 1.128-.22 1.523-.66.4-.44.6-1.01.6-1.708 0-.697-.2-1.27-.6-1.71-.396-.445-.9-.665-1.523-.665-.616 0-1.126.22-1.517.663-.398.443-.6 1.014-.6 1.71zm3.015-5.416h-2.27l2.013-2.813 2.46 1.03-2.203 1.783zM393.782 121.756v4.76h-2.376v-8.532h2.376v.948c.717-.73 1.525-1.09 2.43-1.09.896 0 1.65.313 2.265.945.604.635.91 1.485.91 2.54v5.19h-2.38v-4.82c0-1.318-.484-1.972-1.446-1.972-.47 0-.892.177-1.242.512-.354.343-.536.852-.536 1.52zM413.565 121.914v4.602h-2.395v-4.664c0-.677-.098-1.177-.307-1.49-.207-.32-.54-.48-1.004-.48-.46 0-.868.176-1.217.517-.36.34-.532.845-.532 1.515v4.602h-2.38v-8.532h2.38v.964c.654-.74 1.41-1.106 2.25-1.106.542 0 1.028.156 1.467.475.44.312.768.698.995 1.155.326-.52.767-.922 1.324-1.203.552-.286 1.114-.428 1.676-.428 1 0 1.812.293 2.423.89.61.598.915 1.46.915 2.597v5.19h-2.387v-4.665c0-1.31-.48-1.97-1.443-1.97-.475 0-.89.176-1.24.517-.346.337-.525.842-.525 1.512zM429.86 122.244c0 1.24-.427 2.28-1.282 3.126-.862.85-1.934 1.272-3.233 1.272-1.29 0-2.373-.424-3.224-1.272-.854-.846-1.287-1.885-1.287-3.126 0-1.24.433-2.278 1.288-3.13.852-.85 1.935-1.272 3.225-1.272 1.3 0 2.37.422 3.233 1.273.856.85 1.283 1.89 1.283 3.13zm-6.632 0c0 .698.2 1.267.598 1.71.393.438.903.658 1.52.658.623 0 1.132-.22 1.522-.66.397-.44.604-1.01.604-1.708 0-.697-.206-1.27-.604-1.71-.39-.445-.9-.665-1.522-.665-.616 0-1.127.22-1.52.663-.397.443-.598 1.014-.598 1.71zm3.013-5.416h-2.27l2.016-2.813 2.463 1.03-2.21 1.783zM433.905 126.516l-3.382-8.555h2.482l2.122 5.382 2.128-5.38h2.47l-3.38 8.554h-2.44zM441.102 116.892c-.27-.267-.41-.596-.41-.986 0-.397.14-.73.41-1 .273-.264.598-.405.988-.405.393 0 .725.143.99.407.276.268.408.602.408 1 0 .39-.132.72-.408.985-.266.27-.598.405-.99.405-.39 0-.715-.134-.988-.405zm2.177 9.624H440.9v-8.532h2.377v8.532zM447.915 126.516h-2.382v-11.772h2.382v11.772z"/></g><g fill="#FFF"><path d="M103.782 91.578h3.242c.1 0 .184-.61.184-1.366 0-.758-.084-1.367-.184-1.367h-3.242c-.104 0-.188.61-.188 1.367 0 .756.085 1.366.188 1.366z"/><path d="M110.527 92.954c0-.766-.08-1.376-.184-1.376H107.1c-.1 0-.184.61-.184 1.376 0 .434.027.803.073 1.05h-3.16c.04-.247.072-.616.072-1.05 0-.766-.085-1.376-.188-1.376h-3.24c-.104 0-.184.61-.184 1.376 0 .434.028.803.07 1.05h-2.9c-.105 0-.188.613-.188 1.37 0 .752.082 1.37.187 1.37h3.244c.103 0 .182-.618.182-1.37 0-.434-.026-.802-.072-1.053h2.854c-.04.252-.073.62-.073 1.055 0 .75.084 1.368.188 1.368h3.242c.1 0 .184-.617.184-1.368 0-.435-.028-.803-.073-1.054h3.208c.103 0 .182-.612.182-1.366zM81.236 82.037c-.047.108-.745 1.654 1.027 1.654h9.045l-.024.085c2.495 0 2.38-2.326 2.38-2.326l.035.007V66.98c-5.523 3.04-9.283 7.704-12.464 15.057z"/><path d="M97.472 92.954c0-.766-.08-1.376-.184-1.376h3.107c.104 0 .186-.61.186-1.366 0-.758-.08-1.367-.185-1.367h-3.242c-.103 0-.188.61-.188 1.367 0 .756.085 1.366.188 1.366h-3.107c-.1 0-.186.61-.186 1.376 0 .754.085 1.367.186 1.367h3.242c.105 0 .184-.612.184-1.366zM106.12 62.712c-3.362.46-6.9 1.253-9.11 2.5v16.1c0 .485.23 2.378 1.858 2.378h22.195c2.13 0 2.08-2.352 2.08-2.352l.045.184c.032-.444.07-.894.07-1.332 0-11.628-3.977-19.274-17.137-17.478z"/><path d="M106.197 40.325S50.873 34.15 50.873 80.22c0 46.064 34.43 43.686 39.653 43.686 5.228 0 28.854-2.83 31.443-.14l4.835 4.424s5.204 6.5 19.605 5.692c15.143-.837 15.6-24.222 15.6-37.987 0-13.78 10.207-55.57-55.813-55.57zm-22.29 67.297c-3.344 0-6.058-2.71-6.058-6.057 0-3.344 2.713-6.052 6.056-6.052 3.346 0 6.056 2.708 6.056 6.052 0 3.348-2.71 6.057-6.056 6.057zm39.572-.35c-3.15 0-5.706-2.55-5.706-5.706 0-3.148 2.556-5.7 5.705-5.7 3.15 0 5.703 2.552 5.703 5.7 0 3.155-2.552 5.705-5.704 5.705zm16.583-14.56c0 3.562-1.72 6.524-4.306 8.144-2.256 1.233-3.485-.823-3.793-1.734-.037-.11-.077-.223-.113-.335-.01-.04-.036-.07-.036-.07l-.047-.004c-1.183-3.495-4.563-6.04-8.46-6.04-4.06 0-7.566 2.697-8.68 6.43.024-.007-.705 2.254-3.44 2.254H97.02c-2.897 0-3.8-.13-4.076-1.788-.787-4.287-4.55-7.207-9.07-7.207-1.395 0-2.746.32-3.932.878-1.063.554-5.148 3.56-5.99.204-.02-.243-.052-1.406-.052-1.455.133-16.456 11.74-30.207 27.177-33.748.045-4.277 3.348-7.762 7.634-7.762 4.117 0 4.74 3.12 4.794 7.147 11.927 1.996 14.046 12.818 14.42 24.964h3.47c5.153 0 8.67 4.405 8.67 9.557v.564z"/><path d="M113.79 94.003h-3.242c-.104 0-.184.614-.184 1.372 0 .75.08 1.368.184 1.368h3.242c.105 0 .187-.617.187-1.368 0-.758-.08-1.372-.187-1.372zM113.79 88.845h-3.242c-.104 0-.184.61-.184 1.367 0 .756.08 1.366.184 1.366h3.242c.105 0 .187-.61.187-1.366 0-.758-.08-1.367-.187-1.367z"/></g></svg>