<svg xmlns="http://www.w3.org/2000/svg" width="512" height="512" viewBox="0 0 64 64"><g fill="#897400"><path d="M2.252 10.27h58.87c1.125 0 2.035-.91 2.035-2.033 0-1.123-.91-2.034-2.034-2.034H2.253c-1.125 0-2.035.91-2.035 2.034 0 1.123.91 2.034 2.034 2.034zM61.123 30.015H2.253c-1.125 0-2.035.912-2.035 2.035 0 1.122.91 2.034 2.034 2.034h58.87c1.125 0 2.035-.912 2.035-2.034 0-1.123-.91-2.035-2.034-2.035zM61.123 53.876H2.253c-1.125 0-2.035.91-2.035 2.034 0 1.123.91 2.034 2.034 2.034h58.87c1.125 0 2.035-.91 2.035-2.034 0-1.124-.91-2.034-2.034-2.034z"/></g></svg>